G75*
G70*
%OFA0B0*%
%FSLAX24Y24*%
%IPPOS*%
%LPD*%
%AMOC8*
5,1,8,0,0,1.08239X$1,22.5*
%
%ADD10R,0.5150X0.0050*%
%ADD11R,0.1250X0.0050*%
%ADD12R,0.1150X0.0050*%
%ADD13R,0.4950X0.0050*%
%ADD14R,0.3450X0.0050*%
%ADD15R,0.1850X0.0050*%
%ADD16R,0.3550X0.0050*%
%ADD17R,0.5250X0.0050*%
%ADD18R,0.1350X0.0050*%
%ADD19R,0.5050X0.0050*%
%ADD20R,0.1950X0.0050*%
%ADD21R,0.3650X0.0050*%
%ADD22R,0.5300X0.0050*%
%ADD23R,0.5100X0.0050*%
%ADD24R,0.3700X0.0050*%
%ADD25R,0.2200X0.0050*%
%ADD26R,0.3900X0.0050*%
%ADD27R,0.5350X0.0050*%
%ADD28R,0.3750X0.0050*%
%ADD29R,0.2250X0.0050*%
%ADD30R,0.3950X0.0050*%
%ADD31R,0.3800X0.0050*%
%ADD32R,0.2300X0.0050*%
%ADD33R,0.4000X0.0050*%
%ADD34R,0.3850X0.0050*%
%ADD35R,0.2350X0.0050*%
%ADD36R,0.4050X0.0050*%
%ADD37R,0.2450X0.0050*%
%ADD38R,0.4100X0.0050*%
%ADD39R,0.2550X0.0050*%
%ADD40R,0.4150X0.0050*%
%ADD41R,0.2600X0.0050*%
%ADD42R,0.2650X0.0050*%
%ADD43R,0.2750X0.0050*%
%ADD44R,0.4200X0.0050*%
%ADD45R,0.1200X0.0050*%
%ADD46R,0.2800X0.0050*%
%ADD47R,0.4250X0.0050*%
%ADD48R,0.2900X0.0050*%
%ADD49R,0.4300X0.0050*%
%ADD50R,0.4350X0.0050*%
%ADD51R,0.2850X0.0050*%
%ADD52R,0.1550X0.0050*%
%ADD53R,0.3350X0.0050*%
%ADD54R,0.3100X0.0050*%
%ADD55R,0.1500X0.0050*%
%ADD56R,0.3150X0.0050*%
%ADD57R,0.3000X0.0050*%
%ADD58R,0.1300X0.0050*%
%ADD59R,0.2050X0.0050*%
%ADD60R,0.1450X0.0050*%
%ADD61R,0.3500X0.0050*%
%ADD62R,0.1400X0.0050*%
%ADD63R,0.1750X0.0050*%
%ADD64R,0.3600X0.0050*%
%ADD65R,0.2950X0.0050*%
%ADD66R,0.2500X0.0050*%
%ADD67R,0.5500X0.0050*%
%ADD68R,0.5550X0.0050*%
%ADD69R,0.2400X0.0050*%
%ADD70R,0.2150X0.0050*%
%ADD71R,0.3250X0.0050*%
%ADD72R,0.2100X0.0050*%
%ADD73R,0.0250X0.0050*%
%ADD74R,0.0350X0.0050*%
%ADD75R,0.0500X0.0050*%
%ADD76R,0.0550X0.0050*%
%ADD77R,0.0800X0.0050*%
%ADD78R,0.0850X0.0050*%
%ADD79R,0.1000X0.0050*%
%ADD80R,0.1050X0.0050*%
%ADD81R,0.1900X0.0050*%
%ADD82R,0.1650X0.0050*%
%ADD83R,0.1600X0.0050*%
%ADD84R,0.3400X0.0050*%
%ADD85R,0.5450X0.0050*%
%ADD86R,0.5400X0.0050*%
%ADD87R,0.5200X0.0050*%
%ADD88R,0.5000X0.0050*%
%ADD89R,0.4900X0.0050*%
%ADD90R,0.4750X0.0050*%
%ADD91R,0.4700X0.0050*%
%ADD92R,0.4850X0.0050*%
%ADD93R,0.4450X0.0050*%
D10*
X024461Y022161D03*
X024311Y025811D03*
X024361Y025861D03*
X024411Y025911D03*
X024411Y025961D03*
X024411Y026011D03*
X024411Y026061D03*
X024411Y026111D03*
X024511Y026411D03*
X024611Y026611D03*
X024661Y026661D03*
X017111Y026411D03*
X026861Y015811D03*
X026861Y015761D03*
X026861Y015711D03*
X026861Y015661D03*
X026861Y015611D03*
X026861Y015561D03*
X026861Y015511D03*
X026861Y015461D03*
X026861Y015411D03*
X026861Y015361D03*
X026861Y015311D03*
X026861Y015261D03*
X026861Y015211D03*
X026861Y015161D03*
X026861Y015111D03*
X026861Y015061D03*
X026861Y015011D03*
X026861Y014961D03*
X026861Y014911D03*
X026861Y014861D03*
X026861Y014811D03*
D11*
X023311Y015611D03*
X023311Y016111D03*
X020511Y016111D03*
X020511Y016061D03*
X020511Y016011D03*
X020511Y015961D03*
X020511Y015911D03*
X020511Y015861D03*
X020511Y015811D03*
X020511Y015761D03*
X020511Y015711D03*
X020511Y015661D03*
X020511Y015611D03*
X020511Y016761D03*
X020511Y016811D03*
X020511Y016861D03*
X020511Y016911D03*
X020511Y016961D03*
X020511Y017011D03*
X020511Y017061D03*
X020511Y017111D03*
X020511Y017161D03*
X020511Y017211D03*
X018711Y017211D03*
X018711Y017161D03*
X018711Y017111D03*
X018711Y017061D03*
X018711Y017011D03*
X018711Y016961D03*
X018711Y016911D03*
X018711Y016861D03*
X018711Y016811D03*
X018711Y016761D03*
X018711Y016711D03*
X018711Y016661D03*
X018711Y016611D03*
X018711Y016561D03*
X018711Y016511D03*
X018711Y016461D03*
X018711Y016411D03*
X018711Y016361D03*
X018711Y016311D03*
X018711Y016261D03*
X018711Y016211D03*
X018711Y016161D03*
X018711Y016111D03*
X018711Y016061D03*
X018711Y016011D03*
X018711Y015961D03*
X018711Y015911D03*
X018711Y015861D03*
X018711Y015811D03*
X018711Y015761D03*
X018711Y015711D03*
X018711Y015161D03*
X018711Y015111D03*
X018711Y015061D03*
X018711Y015011D03*
X018711Y014961D03*
X018711Y014911D03*
X018711Y014861D03*
X018711Y014811D03*
X018711Y014761D03*
X018711Y014711D03*
X015611Y015911D03*
X015611Y015961D03*
X015611Y016011D03*
X015611Y016061D03*
X015611Y016111D03*
X015611Y016161D03*
X015611Y016211D03*
X015611Y016261D03*
X015611Y016311D03*
X015611Y016361D03*
X015611Y016411D03*
X015611Y016461D03*
X015611Y016511D03*
X015611Y016561D03*
X015611Y016611D03*
X015611Y016661D03*
X015611Y016711D03*
X015611Y016761D03*
X015611Y016811D03*
X015611Y016861D03*
X015611Y016911D03*
X015611Y016961D03*
X015611Y017011D03*
X014011Y017011D03*
X014011Y017061D03*
X014011Y017111D03*
X014011Y017161D03*
X014011Y017211D03*
X014011Y016961D03*
X014011Y016911D03*
X010911Y016011D03*
X010911Y015961D03*
X010911Y015911D03*
X010911Y015861D03*
X010911Y015811D03*
X010911Y015761D03*
X010911Y015711D03*
X013061Y022211D03*
X013061Y022261D03*
X013061Y022311D03*
X013061Y022361D03*
X013061Y022411D03*
X013061Y022461D03*
X013061Y022511D03*
X013061Y022561D03*
X013061Y022611D03*
X013061Y022661D03*
X013061Y022711D03*
X013061Y022761D03*
X013061Y022811D03*
X013061Y022861D03*
X013061Y022911D03*
X013061Y022961D03*
X013061Y023011D03*
X013061Y023061D03*
X013061Y023111D03*
X013061Y023161D03*
X013061Y023211D03*
X013061Y023261D03*
X013061Y023311D03*
X013061Y023361D03*
X013061Y023411D03*
X013061Y023461D03*
X013061Y023511D03*
X013061Y023561D03*
X013061Y023611D03*
X013061Y023661D03*
X013061Y023711D03*
X013061Y023761D03*
X013061Y023811D03*
X013061Y023861D03*
X013061Y023911D03*
X013061Y023961D03*
X013061Y024011D03*
X013061Y024061D03*
X013061Y024111D03*
X013061Y024161D03*
X013061Y024211D03*
X013061Y024261D03*
X013061Y024311D03*
X013061Y024361D03*
X013061Y024411D03*
X013061Y024461D03*
X013061Y024511D03*
X013061Y024561D03*
X013061Y024611D03*
X013061Y024661D03*
X013061Y024711D03*
X013061Y024761D03*
X013061Y024811D03*
X013061Y024861D03*
X013061Y024911D03*
X013061Y024961D03*
X013061Y025011D03*
X013061Y025061D03*
X013061Y025111D03*
X013061Y025161D03*
X013061Y025211D03*
X013061Y025261D03*
X013061Y025311D03*
X013061Y025361D03*
X013061Y025411D03*
X013061Y025461D03*
X013061Y025511D03*
X013061Y025561D03*
X013061Y025611D03*
X013061Y026311D03*
X013061Y026361D03*
X013061Y026411D03*
X013061Y026461D03*
X013061Y026511D03*
X013061Y026561D03*
X013061Y026611D03*
X013061Y026661D03*
X013061Y026711D03*
X013061Y026761D03*
X013061Y026811D03*
X013061Y026861D03*
X013061Y026911D03*
X013061Y026961D03*
X013061Y027011D03*
X013061Y027061D03*
X013061Y027111D03*
X019011Y022161D03*
X018711Y019611D03*
X018711Y019561D03*
X018711Y019511D03*
X018711Y019461D03*
X018711Y019411D03*
X018711Y019361D03*
X018711Y019311D03*
X018711Y019261D03*
X018711Y019211D03*
X018711Y019161D03*
X018711Y019111D03*
X018711Y019061D03*
X018711Y019011D03*
X018711Y018961D03*
X018711Y018911D03*
X018711Y018861D03*
X018711Y018811D03*
X018711Y018761D03*
X018711Y018711D03*
X018711Y018661D03*
X018711Y018611D03*
X018711Y018561D03*
X018711Y018511D03*
X018711Y018461D03*
X018711Y018411D03*
X018711Y018361D03*
X018711Y018311D03*
X018711Y018261D03*
X018711Y018211D03*
X028761Y019361D03*
D12*
X023361Y016011D03*
X023361Y015961D03*
X023361Y015911D03*
X023361Y015861D03*
X023361Y015811D03*
X023361Y015761D03*
X023361Y015711D03*
X018711Y014661D03*
X018711Y019661D03*
X013061Y022161D03*
X013061Y025661D03*
X013061Y026261D03*
X013061Y027161D03*
D13*
X017211Y026611D03*
X026811Y014661D03*
D14*
X022061Y018161D03*
X021661Y014661D03*
X017611Y018111D03*
X016361Y023411D03*
D15*
X020961Y023611D03*
X020961Y023661D03*
X020961Y023711D03*
X020961Y023761D03*
X020961Y023811D03*
X020961Y023861D03*
X020961Y023911D03*
X020961Y023961D03*
X020961Y024011D03*
X020961Y024061D03*
X020961Y024111D03*
X020961Y024161D03*
X020961Y024211D03*
X020961Y024261D03*
X020961Y024311D03*
X020961Y024361D03*
X020961Y024411D03*
X026261Y023361D03*
X026261Y023311D03*
X026261Y023261D03*
X016861Y014661D03*
D16*
X012711Y014661D03*
X012061Y016211D03*
X016311Y023511D03*
X022061Y018111D03*
X021661Y014711D03*
D17*
X024461Y022211D03*
X024461Y026211D03*
X024461Y026261D03*
X024461Y026311D03*
X024561Y026511D03*
X017061Y026311D03*
D18*
X019011Y025611D03*
X019011Y025561D03*
X019011Y025511D03*
X019011Y025461D03*
X019011Y025411D03*
X019011Y025361D03*
X019011Y025311D03*
X019011Y025261D03*
X019011Y025211D03*
X019011Y025161D03*
X019011Y025111D03*
X019011Y025061D03*
X019011Y025011D03*
X019011Y024961D03*
X019011Y024911D03*
X019011Y024861D03*
X019011Y024811D03*
X019011Y024761D03*
X019011Y024711D03*
X019011Y024661D03*
X019011Y024611D03*
X019011Y024561D03*
X019011Y024511D03*
X019011Y024461D03*
X019011Y024411D03*
X019011Y023961D03*
X019011Y023911D03*
X019011Y023861D03*
X019011Y023811D03*
X019011Y023761D03*
X019011Y023711D03*
X019011Y023661D03*
X019011Y023611D03*
X019011Y023561D03*
X019011Y023511D03*
X019011Y023461D03*
X019011Y023411D03*
X019011Y023361D03*
X019011Y023311D03*
X019011Y023261D03*
X019011Y023211D03*
X019011Y023161D03*
X019011Y023111D03*
X019011Y023061D03*
X019011Y023011D03*
X019011Y022961D03*
X019011Y022911D03*
X019011Y022861D03*
X019011Y022811D03*
X019011Y022761D03*
X019011Y022711D03*
X019011Y022661D03*
X019011Y022611D03*
X019011Y022561D03*
X019011Y022511D03*
X019011Y022461D03*
X019011Y022411D03*
X019011Y022361D03*
X019011Y022311D03*
X019011Y022261D03*
X019011Y022211D03*
X014811Y024611D03*
X014811Y024661D03*
X014811Y024711D03*
X014811Y024761D03*
X014811Y024811D03*
X014811Y024861D03*
X014811Y024911D03*
X014811Y024961D03*
X014811Y025011D03*
X014811Y025061D03*
X014811Y025111D03*
X014811Y025161D03*
X014811Y025211D03*
X014811Y025261D03*
X014811Y025311D03*
X014811Y025361D03*
X014811Y025411D03*
X015661Y017111D03*
X015661Y015811D03*
X028761Y016011D03*
X028761Y016061D03*
X028761Y016111D03*
X028761Y016161D03*
X028761Y016211D03*
X028761Y016261D03*
X028761Y016311D03*
X028761Y016361D03*
X028761Y016411D03*
X028761Y016461D03*
X028761Y016511D03*
X028761Y016561D03*
X028761Y016611D03*
X028761Y016661D03*
X028761Y016711D03*
X028761Y016761D03*
X028761Y016811D03*
X028761Y016861D03*
X028761Y016911D03*
X028761Y016961D03*
X028761Y017011D03*
X028761Y017061D03*
X028761Y017111D03*
X028761Y017161D03*
X028761Y017211D03*
X028761Y017261D03*
X028761Y017311D03*
X028761Y017361D03*
X028761Y017411D03*
X028761Y017461D03*
X028761Y017511D03*
X028761Y017561D03*
X028761Y017611D03*
X028761Y017661D03*
X028761Y017711D03*
X028761Y017761D03*
X028761Y017811D03*
X028761Y017861D03*
X028761Y017911D03*
X028761Y017961D03*
X028761Y018011D03*
X028761Y018061D03*
X028761Y018111D03*
X028761Y018161D03*
X028761Y018211D03*
X028761Y018261D03*
X028761Y018311D03*
X028761Y018361D03*
X028761Y018411D03*
X028761Y018461D03*
X028761Y018511D03*
X028761Y018561D03*
X028761Y018611D03*
X028761Y018661D03*
X028761Y018711D03*
X028761Y018761D03*
X028761Y018811D03*
X028761Y018861D03*
X028761Y018911D03*
X028761Y018961D03*
X028761Y019011D03*
X028761Y019061D03*
X028761Y019111D03*
X028761Y019161D03*
X028761Y019211D03*
X028761Y019261D03*
X028761Y019311D03*
D19*
X026811Y014711D03*
X024761Y026711D03*
X017161Y026511D03*
D20*
X022811Y024911D03*
X016861Y014711D03*
D21*
X012711Y014711D03*
X012261Y018161D03*
X016261Y023611D03*
D22*
X017036Y026261D03*
X024486Y022261D03*
D23*
X024286Y025761D03*
X017136Y026461D03*
X026886Y015861D03*
X026836Y014761D03*
D24*
X021986Y018061D03*
X021736Y014761D03*
X017486Y018061D03*
X012686Y016661D03*
D25*
X016736Y014761D03*
X022936Y024861D03*
D26*
X012586Y014761D03*
X017386Y017861D03*
X021836Y017261D03*
X021886Y017761D03*
X021836Y014961D03*
X016236Y023861D03*
D27*
X017011Y026111D03*
X017011Y026161D03*
X017011Y026211D03*
X024511Y023211D03*
X024511Y023161D03*
X024511Y023111D03*
X024511Y023061D03*
X024511Y023011D03*
X024511Y022961D03*
X024511Y022911D03*
X024511Y022861D03*
X024511Y022811D03*
X024511Y022761D03*
X024511Y022711D03*
X024511Y022661D03*
X024511Y022611D03*
X024511Y022561D03*
X024511Y022511D03*
X024511Y022461D03*
X024511Y022411D03*
X024511Y022361D03*
X024511Y022311D03*
D28*
X021961Y018011D03*
X021761Y014811D03*
X017461Y018011D03*
X012661Y016611D03*
X012261Y018111D03*
X016261Y023661D03*
D29*
X022961Y024811D03*
X026061Y023461D03*
X016711Y014811D03*
D30*
X017361Y017811D03*
X021861Y017711D03*
X021861Y017661D03*
X021861Y017611D03*
X021861Y017561D03*
X021861Y017511D03*
X021861Y017461D03*
X021861Y017411D03*
X021861Y017361D03*
X021861Y017311D03*
X021861Y016461D03*
X021861Y016411D03*
X021861Y015111D03*
X021861Y015061D03*
X021861Y015011D03*
X016211Y023911D03*
X012311Y018061D03*
X012561Y014811D03*
D31*
X017436Y017961D03*
X021936Y017961D03*
X021786Y014861D03*
D32*
X016686Y014861D03*
X011436Y016061D03*
D33*
X012536Y014861D03*
X017336Y017761D03*
X021886Y016361D03*
X021886Y015161D03*
X016236Y023961D03*
X016236Y024011D03*
X016236Y024061D03*
X016236Y024111D03*
D34*
X016261Y023811D03*
X016261Y023761D03*
X016261Y023711D03*
X017411Y017911D03*
X021911Y017911D03*
X021911Y017861D03*
X021911Y017811D03*
X021811Y014911D03*
X012561Y016561D03*
X012511Y016511D03*
X012461Y016461D03*
X012411Y016411D03*
X012361Y016361D03*
X012311Y016311D03*
X012261Y016261D03*
D35*
X011461Y016111D03*
X016661Y014911D03*
X022411Y016761D03*
X026011Y023511D03*
D36*
X021911Y016311D03*
X021911Y016261D03*
X021911Y016211D03*
X021911Y016161D03*
X021911Y015561D03*
X021911Y015511D03*
X021911Y015461D03*
X021911Y015411D03*
X021911Y015361D03*
X021911Y015311D03*
X021911Y015261D03*
X021911Y015211D03*
X017311Y017711D03*
X012311Y018011D03*
X012511Y014911D03*
D37*
X016661Y014961D03*
D38*
X017286Y017661D03*
X012336Y017961D03*
X012486Y014961D03*
D39*
X016661Y015011D03*
X022511Y016561D03*
X023111Y024711D03*
D40*
X017261Y017611D03*
X012361Y017911D03*
X012461Y015111D03*
X012461Y015061D03*
X012461Y015011D03*
D41*
X016636Y015061D03*
X022536Y016511D03*
X025886Y023561D03*
D42*
X025861Y023611D03*
X016611Y015111D03*
D43*
X016611Y015161D03*
X016561Y023161D03*
X023261Y024661D03*
X023311Y024611D03*
D44*
X017236Y017561D03*
X012386Y017861D03*
X012386Y015661D03*
X012436Y015161D03*
D45*
X018736Y015211D03*
X018736Y015261D03*
X018736Y015311D03*
X018736Y015361D03*
X018736Y015411D03*
X020486Y016511D03*
X020486Y016561D03*
X020486Y016611D03*
X020486Y016661D03*
X020486Y016711D03*
X023336Y016061D03*
X023336Y015661D03*
D46*
X016586Y015211D03*
D47*
X017211Y015461D03*
X017211Y015511D03*
X017211Y017311D03*
X017211Y017361D03*
X017211Y017411D03*
X017211Y017461D03*
X017211Y017511D03*
X012411Y017711D03*
X012411Y017761D03*
X012411Y017811D03*
X012411Y015611D03*
X012411Y015561D03*
X012411Y015511D03*
X012411Y015461D03*
X012411Y015411D03*
X012411Y015361D03*
X012411Y015311D03*
X012411Y015261D03*
X012411Y015211D03*
D48*
X016536Y015311D03*
X016536Y015361D03*
X016536Y015411D03*
X016586Y015261D03*
D49*
X017186Y015561D03*
X017186Y017261D03*
X012486Y017261D03*
X012436Y017661D03*
D50*
X012461Y017611D03*
X012461Y017561D03*
X012461Y017511D03*
X012461Y017461D03*
X012461Y017411D03*
X012461Y017361D03*
X012461Y017311D03*
X017161Y015661D03*
X017161Y015611D03*
X017461Y026861D03*
D51*
X016561Y023211D03*
D52*
X014911Y024411D03*
X014911Y025611D03*
X022511Y025711D03*
X015761Y017211D03*
X015761Y015711D03*
D53*
X016361Y023361D03*
X023511Y023261D03*
X024061Y024261D03*
X024361Y024161D03*
X024661Y024061D03*
X024961Y023961D03*
X025261Y023861D03*
D54*
X016436Y023261D03*
D55*
X014886Y024461D03*
X014886Y025561D03*
X022486Y025661D03*
X015736Y017161D03*
X015736Y015761D03*
D56*
X013011Y016761D03*
X012961Y016711D03*
X016411Y023311D03*
X023411Y023311D03*
X023911Y024311D03*
X023711Y024411D03*
X023661Y024461D03*
X024211Y024211D03*
X024511Y024111D03*
X024811Y024011D03*
X025111Y023911D03*
X025411Y023811D03*
X025461Y023761D03*
D57*
X023386Y023361D03*
D58*
X019036Y024011D03*
X019036Y024061D03*
X019036Y024111D03*
X015636Y017061D03*
X015636Y015861D03*
D59*
X022361Y016861D03*
X026161Y023411D03*
D60*
X022561Y025111D03*
X022511Y025161D03*
X022461Y025211D03*
X022461Y025261D03*
X022461Y025311D03*
X022461Y025361D03*
X022461Y025411D03*
X022461Y025461D03*
X022461Y025511D03*
X022461Y025561D03*
X022461Y025611D03*
X014861Y025511D03*
X014861Y024511D03*
X028711Y015911D03*
D61*
X016336Y023461D03*
X012036Y016161D03*
D62*
X014836Y024561D03*
X014836Y025461D03*
X028736Y015961D03*
D63*
X020961Y023561D03*
X020961Y024461D03*
D64*
X016286Y023561D03*
D65*
X023461Y024561D03*
X023511Y024511D03*
X025611Y023711D03*
X025661Y023661D03*
D66*
X023086Y024761D03*
X022436Y016661D03*
X022486Y016611D03*
D67*
X016936Y024161D03*
X016936Y025861D03*
D68*
X016911Y025811D03*
X016911Y025761D03*
X016911Y025711D03*
X016911Y025661D03*
X016911Y024361D03*
X016911Y024311D03*
X016911Y024261D03*
X016911Y024211D03*
D69*
X022436Y016711D03*
D70*
X022361Y016811D03*
X013561Y016811D03*
D71*
X023811Y024361D03*
D72*
X013586Y016861D03*
D73*
X011261Y016861D03*
D74*
X011261Y016911D03*
D75*
X011186Y016961D03*
D76*
X011161Y017011D03*
D77*
X011036Y017061D03*
D78*
X011011Y017111D03*
D79*
X010936Y017161D03*
D80*
X010911Y017211D03*
D81*
X022786Y024961D03*
D82*
X022661Y025011D03*
D83*
X022636Y025061D03*
D84*
X017636Y018161D03*
D85*
X016961Y025911D03*
X016961Y025961D03*
X016961Y026011D03*
D86*
X016986Y026061D03*
D87*
X017086Y026361D03*
X024436Y026161D03*
X024486Y026361D03*
X024536Y026461D03*
X024586Y026561D03*
D88*
X024786Y026761D03*
X017186Y026561D03*
D89*
X017236Y026661D03*
D90*
X017311Y026711D03*
X024861Y026861D03*
D91*
X017336Y026761D03*
D92*
X024861Y026811D03*
D93*
X017461Y026811D03*
M02*
