%
M48
M72
T01C0.0150
T02C0.0180
T03C0.0240
T06C0.0360
T08C0.0400
T09C0.0500
T11C0.1100
T12C0.1200
T13C0.1500
T14C0.0512
T15C0.0315
T16C0.0394
T17C0.0354
%
T01
X11971Y9571
X11971Y12591
X11551Y14511
X11571Y16511
X17771Y14321
X17751Y12111
X21111Y8331
X21431Y8611
X21731Y8911
X22271Y8491
X21731Y7291
X20811Y7891
X18951Y7591
X20991Y4851
X22431Y4251
X23451Y5271
X24271Y5411
X24451Y5831
X25611Y6811
X25591Y7891
X25461Y8511
X26401Y8511
X27451Y8691
X27571Y7631
X28811Y8751
X29871Y6671
X31171Y7131
X29091Y4971
X30131Y4671
X30651Y4571
X28031Y4471
X27431Y5651
X27011Y5911
X25611Y10011
X26771Y11591
X29091Y11611
X28471Y14791
X29131Y16611
X29291Y17871
X27951Y18791
X26331Y16611
X23651Y14511
X21431Y15611
X21631Y21251
X19111Y24151
X23651Y27491
X24131Y27531
X25641Y26601
X26131Y25791
X26851Y26511
X27891Y27551
X30791Y23591
X31791Y24171
X33851Y26651
X34271Y26651
X38871Y24751
X36151Y17351
X35791Y16271
X35371Y15671
X36351Y14371
X36211Y12391
X29911Y1771
T02
X20261Y20731
X26151Y26771
X32991Y24951
X34691Y26651
T03
X24771Y31111
X8771Y30311
X17211Y6871
X19631Y4691
X20291Y2451
T06
X24611Y7111
X24611Y8111
X24611Y9111
X24611Y10111
X24611Y11111
X24611Y12111
X24611Y13111
X24611Y14111
X24611Y15111
X24611Y16111
X24611Y17111
X24611Y18111
X24611Y19111
X24611Y20111
X24611Y21111
X24611Y22111
X24611Y23111
X24611Y24111
X24611Y25111
X24611Y26111
X24611Y27111
X24611Y28111
X24611Y29111
X24611Y30111
X28311Y34111
X29311Y34111
X30311Y34111
X25611Y35861
X25611Y36861
X25611Y37861
X25611Y38861
X14611Y30111
X14611Y29111
X14611Y28111
X14611Y27111
X14611Y26111
X14611Y25111
X14611Y24111
X14611Y23111
X14611Y22111
X14611Y21111
X14611Y20111
X14611Y19111
X14611Y18111
X14611Y17111
X14611Y16111
X14611Y15111
X14611Y14111
X14611Y13111
X14611Y12111
X14611Y11111
X14611Y10111
X14611Y9111
X14611Y8111
X14611Y7111
X11361Y7111
X10361Y7111
X9361Y7111
X6761Y8111
X6761Y9111
X6761Y10111
X6761Y12611
X6761Y13611
X6761Y14611
X6761Y17111
X6761Y18111
X6761Y19111
X26111Y15111
X27111Y15111
X27111Y14111
X26111Y14111
X26111Y13111
X27111Y13111
X27111Y12111
X26111Y12111
X31861Y9361
X32861Y9361
X33861Y9361
X37111Y9861
X37111Y10861
X37111Y11861
X37111Y12861
X37111Y13861
X37111Y14861
X37111Y15861
X37111Y16861
X38111Y16861
X38111Y15861
X38111Y14861
X38111Y13861
X38111Y12861
X38111Y11861
X38111Y10861
X38111Y9861
X38111Y7611
X38111Y6611
X38111Y5611
X38111Y4611
T08
X38111Y18111
X36861Y18111
T09
X12321Y26521
X12321Y27521
X12321Y28521
T11
X6411Y24555
X12711Y36367
T12
X27161Y19911
X38561Y19911
X32161Y31811
T13
X2361Y2111
X18111Y35111
X21111Y35111
X21111Y38611
X18111Y38611
X2361Y38111
X38111Y38111
X38111Y2111
T14
X28611Y3361
X26611Y3361
X24611Y3361
X22611Y3361
X20611Y3361
X18611Y3361
X16611Y3361
X14611Y3361
X12611Y3361
X10611Y3361
X8611Y3361
X6611Y3361
X4861Y5611
X3361Y4861
X3361Y6861
X3361Y8861
X4361Y9361
X3361Y10861
X3361Y12861
X3361Y14861
X3361Y16861
X3361Y18861
X3361Y20861
X3361Y22861
X3361Y25361
X3361Y27361
X3361Y29361
X3361Y31361
X3361Y33361
X3361Y35361
X6116Y38336
X13006Y38336
X13006Y22586
X6116Y22586
T15
X16611Y22111
X16611Y23111
X16611Y24111
X16611Y25111
X16611Y26111
X16611Y27111
X16611Y28111
X16611Y29111
X16611Y30111
X22611Y30111
X22611Y29111
X22611Y28111
X22611Y27111
X22611Y26111
X22611Y25111
X22611Y24111
X22611Y23111
X22611Y22111
X22611Y21111
X22611Y20111
X22611Y19111
X22611Y18111
X22611Y17111
X22611Y16111
X22611Y15111
X22611Y14111
X22611Y13111
X22611Y12111
X22611Y11111
X22611Y10111
X22611Y9111
X22611Y8111
X22611Y7111
X28111Y12111
X28111Y13111
X29111Y13111
X30111Y13111
X30111Y12111
X29111Y12111
X29111Y14111
X29111Y15111
X29111Y16111
X30111Y16111
X30111Y15111
X30111Y14111
X31111Y14111
X31111Y15111
X31111Y16111
X32111Y16111
X32111Y15111
X32111Y14111
X33111Y14111
X33111Y15111
X33111Y16111
X34111Y16111
X34111Y15111
X34111Y14111
X34111Y13111
X34111Y12111
X33111Y12111
X33111Y13111
X32111Y13111
X32111Y12111
X31111Y12111
X31111Y13111
X28111Y14111
X28111Y15111
X28111Y16111
X16611Y16111
X16611Y15111
X16611Y14111
X16611Y13111
X16611Y12111
X16611Y11111
X16611Y10111
X16611Y9111
X16611Y8111
X16611Y7111
X16611Y17111
X16611Y18111
X16611Y19111
X16611Y20111
X16611Y21111
X23611Y38611
T16
X29661Y32361
X29661Y31361
X29661Y30361
X29361Y28111
X30361Y28111
X31361Y28111
X32361Y28111
X33361Y28111
X34361Y28111
X35361Y28111
X36361Y28111
X37361Y28111
X38361Y28111
X39361Y28111
X39361Y25111
X39361Y24111
X39361Y22111
X38361Y22111
X37361Y22111
X36361Y22111
X35361Y22111
X34361Y22111
X33361Y22111
X32361Y22111
X31361Y22111
X30361Y22111
X29361Y22111
X28361Y22111
X27361Y22111
X26361Y22111
X30861Y20111
X30861Y19111
X31861Y20111
X32861Y20111
X33861Y20111
X33861Y19111
X32861Y19111
X34861Y19111
X34861Y20111
X28361Y28111
X27361Y28111
X26361Y28111
T17
X12111Y34111
X5961Y20561
X5511Y17711
X8711Y15011
X6111Y11511
M30
