G75*
G70*
%OFA0B0*%
%FSLAX24Y24*%
%IPPOS*%
%LPD*%
%AMOC8*
5,1,8,0,0,1.08239X$1,22.5*
%
%ADD10C,0.0040*%
%ADD11C,0.0060*%
%ADD12C,0.0080*%
%ADD13C,0.0030*%
%ADD14C,0.0100*%
%ADD15C,0.0500*%
%ADD16C,0.0050*%
D10*
X008708Y007881D02*
X008631Y007958D01*
X008708Y007881D02*
X008861Y007881D01*
X008938Y007958D01*
X008938Y008111D01*
X008861Y008188D01*
X008784Y008188D01*
X008631Y008111D01*
X008631Y008341D01*
X008938Y008341D01*
X009091Y008341D02*
X009091Y008034D01*
X009245Y007881D01*
X009398Y008034D01*
X009398Y008341D01*
X010631Y008188D02*
X010784Y008341D01*
X010784Y007881D01*
X010631Y007881D02*
X010938Y007881D01*
X011091Y007881D02*
X011398Y008188D01*
X011398Y008264D01*
X011321Y008341D01*
X011168Y008341D01*
X011091Y008264D01*
X011091Y007881D02*
X011398Y007881D01*
X011552Y008034D02*
X011705Y007881D01*
X011858Y008034D01*
X011858Y008341D01*
X011552Y008341D02*
X011552Y008034D01*
X025731Y010258D02*
X025808Y010181D01*
X025961Y010181D01*
X026038Y010258D01*
X026038Y010334D01*
X025961Y010411D01*
X025808Y010411D01*
X025731Y010488D01*
X025731Y010564D01*
X025808Y010641D01*
X025961Y010641D01*
X026038Y010564D01*
X026191Y010641D02*
X026191Y010181D01*
X026191Y010411D02*
X026268Y010488D01*
X026421Y010488D01*
X026498Y010411D01*
X026498Y010181D01*
X026652Y010181D02*
X026805Y010181D01*
X026728Y010181D02*
X026728Y010488D01*
X026652Y010488D01*
X026728Y010641D02*
X026728Y010718D01*
X026755Y010881D02*
X026908Y011188D01*
X027062Y011111D02*
X027139Y011188D01*
X027292Y011188D01*
X027369Y011111D01*
X027369Y011034D01*
X027062Y011034D01*
X027062Y010958D02*
X027062Y011111D01*
X027062Y010958D02*
X027139Y010881D01*
X027292Y010881D01*
X027522Y010881D02*
X027676Y010881D01*
X027599Y010881D02*
X027599Y011341D01*
X027522Y011341D01*
X027342Y010564D02*
X027342Y010258D01*
X027419Y010181D01*
X027419Y010488D02*
X027265Y010488D01*
X027112Y010411D02*
X026958Y010411D01*
X027035Y010564D02*
X027112Y010641D01*
X027035Y010564D02*
X027035Y010181D01*
X026755Y010881D02*
X026602Y011188D01*
X026448Y011111D02*
X026448Y011034D01*
X026141Y011034D01*
X026141Y010958D02*
X026141Y011111D01*
X026218Y011188D01*
X026371Y011188D01*
X026448Y011111D01*
X026371Y010881D02*
X026218Y010881D01*
X026141Y010958D01*
X025988Y010881D02*
X025681Y010881D01*
X025681Y011341D01*
X025881Y015981D02*
X025881Y016134D01*
X025881Y016058D02*
X026341Y016058D01*
X026341Y016134D02*
X026341Y015981D01*
X026341Y016288D02*
X025881Y016288D01*
X026341Y016595D01*
X025881Y016595D01*
X026881Y016698D02*
X027264Y016698D01*
X027341Y016621D01*
X027341Y016468D01*
X027264Y016391D01*
X026881Y016391D01*
X026957Y016238D02*
X026881Y016161D01*
X026881Y016008D01*
X026957Y015931D01*
X027264Y015931D01*
X027341Y016008D01*
X027341Y016161D01*
X027264Y016238D01*
X026957Y016238D01*
X026881Y016852D02*
X026881Y017158D01*
X026881Y017005D02*
X027341Y017005D01*
X031358Y008541D02*
X031511Y008541D01*
X031588Y008464D01*
X031588Y008388D01*
X031511Y008311D01*
X031588Y008234D01*
X031588Y008158D01*
X031511Y008081D01*
X031358Y008081D01*
X031281Y008158D01*
X031434Y008311D02*
X031511Y008311D01*
X031281Y008464D02*
X031358Y008541D01*
X031741Y008158D02*
X031818Y008158D01*
X031818Y008081D01*
X031741Y008081D01*
X031741Y008158D01*
X031971Y008158D02*
X032048Y008081D01*
X032202Y008081D01*
X032278Y008158D01*
X032278Y008234D01*
X032202Y008311D01*
X032125Y008311D01*
X032202Y008311D02*
X032278Y008388D01*
X032278Y008464D01*
X032202Y008541D01*
X032048Y008541D01*
X031971Y008464D01*
X032432Y008541D02*
X032432Y008234D01*
X032585Y008081D01*
X032739Y008234D01*
X032739Y008541D01*
X033531Y008541D02*
X033531Y008311D01*
X033684Y008388D01*
X033761Y008388D01*
X033838Y008311D01*
X033838Y008158D01*
X033761Y008081D01*
X033608Y008081D01*
X033531Y008158D01*
X033531Y008541D02*
X033838Y008541D01*
X033991Y008541D02*
X033991Y008234D01*
X034145Y008081D01*
X034298Y008234D01*
X034298Y008541D01*
X035981Y008177D02*
X036441Y008177D01*
X036441Y007947D01*
X036364Y007870D01*
X036211Y007870D01*
X036134Y007947D01*
X036134Y008177D01*
X036211Y007717D02*
X036287Y007717D01*
X036287Y007410D01*
X036211Y007410D02*
X036134Y007486D01*
X036134Y007640D01*
X036211Y007717D01*
X036441Y007640D02*
X036441Y007486D01*
X036364Y007410D01*
X036211Y007410D01*
X036134Y007256D02*
X036134Y007103D01*
X036057Y007179D02*
X036364Y007179D01*
X036441Y007256D01*
X036441Y006873D02*
X036057Y006873D01*
X035981Y006949D01*
X036211Y006949D02*
X036211Y006796D01*
X036134Y006566D02*
X036441Y006566D01*
X036441Y006642D02*
X036441Y006489D01*
X036441Y006336D02*
X036211Y006336D01*
X036134Y006259D01*
X036134Y006105D01*
X036211Y006029D01*
X036287Y005875D02*
X036364Y005875D01*
X036441Y005798D01*
X036441Y005645D01*
X036364Y005568D01*
X036211Y005645D02*
X036211Y005798D01*
X036287Y005875D01*
X036441Y006029D02*
X035981Y006029D01*
X036057Y005875D02*
X035981Y005798D01*
X035981Y005645D01*
X036057Y005568D01*
X036134Y005568D01*
X036211Y005645D01*
X036211Y005415D02*
X036211Y005108D01*
X036441Y004954D02*
X036441Y004801D01*
X036441Y004878D02*
X035981Y004878D01*
X035981Y004801D01*
X036211Y004648D02*
X036287Y004648D01*
X036287Y004341D01*
X036211Y004341D02*
X036134Y004417D01*
X036134Y004571D01*
X036211Y004648D01*
X036441Y004571D02*
X036441Y004417D01*
X036364Y004341D01*
X036211Y004341D01*
X036134Y004187D02*
X036441Y004034D01*
X036134Y003880D01*
X036211Y003727D02*
X036287Y003727D01*
X036287Y003420D01*
X036211Y003420D02*
X036134Y003497D01*
X036134Y003650D01*
X036211Y003727D01*
X036441Y003650D02*
X036441Y003497D01*
X036364Y003420D01*
X036211Y003420D01*
X036441Y003267D02*
X036441Y002960D01*
X035981Y002960D01*
X036134Y006489D02*
X036134Y006566D01*
X035981Y006566D02*
X035904Y006566D01*
X024414Y031720D02*
X024491Y031796D01*
X024491Y031950D01*
X024414Y032026D01*
X024337Y032026D01*
X024261Y031950D01*
X024261Y031873D01*
X024261Y031950D02*
X024184Y032026D01*
X024107Y032026D01*
X024031Y031950D01*
X024031Y031796D01*
X024107Y031720D01*
X024414Y032180D02*
X024414Y032257D01*
X024491Y032257D01*
X024491Y032180D01*
X024414Y032180D01*
X024414Y032410D02*
X024491Y032487D01*
X024491Y032640D01*
X024414Y032717D01*
X024337Y032717D01*
X024261Y032640D01*
X024261Y032563D01*
X024261Y032640D02*
X024184Y032717D01*
X024107Y032717D01*
X024031Y032640D01*
X024031Y032487D01*
X024107Y032410D01*
X024031Y032870D02*
X024337Y032870D01*
X024491Y033024D01*
X024337Y033177D01*
X024031Y033177D01*
X024031Y034510D02*
X024261Y034510D01*
X024184Y034664D01*
X024184Y034740D01*
X024261Y034817D01*
X024414Y034817D01*
X024491Y034740D01*
X024491Y034587D01*
X024414Y034510D01*
X024031Y034510D02*
X024031Y034817D01*
X024031Y034970D02*
X024337Y034970D01*
X024491Y035124D01*
X024337Y035277D01*
X024031Y035277D01*
X023981Y036353D02*
X024287Y036353D01*
X024441Y036507D01*
X024287Y036660D01*
X023981Y036660D01*
X024134Y036814D02*
X024134Y036890D01*
X024441Y036890D01*
X024441Y036814D02*
X024441Y036967D01*
X024441Y037120D02*
X024134Y037120D01*
X024134Y037351D01*
X024211Y037427D01*
X024441Y037427D01*
X023981Y036890D02*
X023904Y036890D01*
X012091Y037631D02*
X012091Y037784D01*
X012091Y037708D02*
X011631Y037708D01*
X011631Y037784D02*
X011631Y037631D01*
X011631Y037938D02*
X012091Y038245D01*
X011631Y038245D01*
X011861Y038398D02*
X011861Y038705D01*
X012014Y038552D02*
X011707Y038552D01*
X011631Y037938D02*
X012091Y037938D01*
X007591Y037938D02*
X007131Y037938D01*
X007591Y038245D01*
X007131Y038245D01*
X007361Y038398D02*
X007361Y038705D01*
X007591Y037784D02*
X007591Y037631D01*
X007591Y037708D02*
X007131Y037708D01*
X007131Y037784D02*
X007131Y037631D01*
D11*
X001474Y004041D02*
X001047Y004041D01*
X000940Y004148D01*
X000940Y004361D01*
X001047Y004468D01*
X001261Y004468D02*
X001261Y004254D01*
X001261Y004468D02*
X001474Y004468D01*
X001581Y004361D01*
X001581Y004148D01*
X001474Y004041D01*
X001574Y008191D02*
X001147Y008191D01*
X001040Y008298D01*
X001040Y008511D01*
X001147Y008618D01*
X001361Y008618D02*
X001361Y008404D01*
X001361Y008618D02*
X001574Y008618D01*
X001681Y008511D01*
X001681Y008298D01*
X001574Y008191D01*
X001574Y012141D02*
X001147Y012141D01*
X001040Y012248D01*
X001040Y012461D01*
X001147Y012568D01*
X001361Y012568D02*
X001361Y012354D01*
X001361Y012568D02*
X001574Y012568D01*
X001681Y012461D01*
X001681Y012248D01*
X001574Y012141D01*
X001574Y016091D02*
X001147Y016091D01*
X001040Y016198D01*
X001040Y016411D01*
X001147Y016518D01*
X001361Y016518D02*
X001361Y016304D01*
X001361Y016518D02*
X001574Y016518D01*
X001681Y016411D01*
X001681Y016198D01*
X001574Y016091D01*
X001574Y020091D02*
X001147Y020091D01*
X001040Y020198D01*
X001040Y020411D01*
X001147Y020518D01*
X001361Y020518D02*
X001361Y020304D01*
X001361Y020518D02*
X001574Y020518D01*
X001681Y020411D01*
X001681Y020198D01*
X001574Y020091D01*
X006057Y021098D02*
X006164Y020991D01*
X006377Y020991D01*
X006484Y021098D01*
X006484Y021311D01*
X006271Y021311D01*
X006484Y021525D02*
X006377Y021631D01*
X006164Y021631D01*
X006057Y021525D01*
X006057Y021098D01*
X006702Y020991D02*
X006702Y021418D01*
X007022Y021418D01*
X007129Y021311D01*
X007129Y020991D01*
X007346Y021098D02*
X007453Y020991D01*
X007773Y020991D01*
X007773Y021631D01*
X007773Y021418D02*
X007453Y021418D01*
X007346Y021311D01*
X007346Y021098D01*
X008940Y023641D02*
X009581Y023641D01*
X009581Y024068D01*
X009581Y024285D02*
X008940Y024285D01*
X009154Y024499D01*
X008940Y024712D01*
X009581Y024712D01*
X009581Y024930D02*
X009154Y025357D01*
X009047Y025357D01*
X008940Y025250D01*
X008940Y025037D01*
X009047Y024930D01*
X009581Y024930D02*
X009581Y025357D01*
X009474Y025574D02*
X009581Y025681D01*
X009581Y025895D01*
X009474Y026001D01*
X009261Y026001D01*
X009154Y025895D01*
X009154Y025788D01*
X009261Y025574D01*
X008940Y025574D01*
X008940Y026001D01*
X009047Y026219D02*
X009154Y026219D01*
X009261Y026326D01*
X009261Y026646D01*
X009474Y026646D02*
X009047Y026646D01*
X008940Y026539D01*
X008940Y026326D01*
X009047Y026219D01*
X009474Y026219D02*
X009581Y026326D01*
X009581Y026539D01*
X009474Y026646D01*
X009474Y026864D02*
X009581Y026970D01*
X009581Y027184D01*
X009474Y027291D01*
X009367Y027291D01*
X009261Y027184D01*
X009261Y026864D01*
X009474Y026864D01*
X009261Y026864D02*
X009047Y027077D01*
X008940Y027291D01*
X009474Y027615D02*
X009474Y027722D01*
X009581Y027722D01*
X009581Y027615D01*
X009474Y027615D01*
X009581Y027722D02*
X009794Y027508D01*
X009474Y028582D02*
X009581Y028689D01*
X009581Y028902D01*
X009474Y029009D01*
X009367Y029009D01*
X009261Y028902D01*
X009261Y028796D01*
X009261Y028902D02*
X009154Y029009D01*
X009047Y029009D01*
X008940Y028902D01*
X008940Y028689D01*
X009047Y028582D01*
X009154Y029227D02*
X008940Y029440D01*
X009154Y029654D01*
X009581Y029654D01*
X009261Y029654D02*
X009261Y029227D01*
X009154Y029227D02*
X009581Y029227D01*
X009581Y030516D02*
X008940Y030516D01*
X008940Y030836D01*
X009047Y030943D01*
X009261Y030943D01*
X009367Y030836D01*
X009367Y030516D01*
X009474Y031160D02*
X009581Y031267D01*
X009581Y031481D01*
X009474Y031587D01*
X009367Y031587D01*
X009261Y031481D01*
X009261Y031267D01*
X009154Y031160D01*
X009047Y031160D01*
X008940Y031267D01*
X008940Y031481D01*
X009047Y031587D01*
X009154Y032449D02*
X009154Y032556D01*
X009261Y032663D01*
X009154Y032770D01*
X009261Y032876D01*
X009581Y032876D01*
X009581Y032663D02*
X009261Y032663D01*
X009154Y032449D02*
X009581Y032449D01*
X009474Y033094D02*
X009581Y033201D01*
X009581Y033414D01*
X009474Y033521D01*
X009261Y033521D01*
X009154Y033414D01*
X009154Y033201D01*
X009261Y033094D01*
X009474Y033094D01*
X009474Y033738D02*
X009261Y033738D01*
X009154Y033845D01*
X009154Y034165D01*
X008940Y034165D02*
X009581Y034165D01*
X009581Y033845D01*
X009474Y033738D01*
X009474Y034383D02*
X009154Y034383D01*
X009474Y034383D02*
X009581Y034490D01*
X009581Y034810D01*
X009154Y034810D01*
X008940Y035028D02*
X008940Y035134D01*
X009581Y035134D01*
X009581Y035028D02*
X009581Y035241D01*
X009474Y035457D02*
X009261Y035457D01*
X009154Y035564D01*
X009154Y035777D01*
X009261Y035884D01*
X009367Y035884D01*
X009367Y035457D01*
X009474Y035457D02*
X009581Y035564D01*
X009581Y035777D01*
X011704Y039248D02*
X011704Y039675D01*
X011491Y039461D02*
X011918Y039461D01*
X012135Y039568D02*
X012349Y039781D01*
X012349Y039141D01*
X012562Y039141D02*
X012135Y039141D01*
X012780Y039141D02*
X013207Y039568D01*
X013207Y039675D01*
X013100Y039781D01*
X012887Y039781D01*
X012780Y039675D01*
X012780Y039141D02*
X013207Y039141D01*
X013424Y039354D02*
X013638Y039141D01*
X013851Y039354D01*
X013851Y039781D01*
X013424Y039781D02*
X013424Y039354D01*
X007207Y039141D02*
X006887Y039141D01*
X006780Y039248D01*
X006780Y039461D01*
X006887Y039568D01*
X007207Y039568D01*
X007207Y039781D02*
X007207Y039141D01*
X006562Y039141D02*
X006562Y039461D01*
X006456Y039568D01*
X006135Y039568D01*
X006135Y039141D01*
X005918Y039248D02*
X005918Y039461D01*
X005704Y039461D01*
X005491Y039248D02*
X005598Y039141D01*
X005811Y039141D01*
X005918Y039248D01*
X005491Y039248D02*
X005491Y039675D01*
X005598Y039781D01*
X005811Y039781D01*
X005918Y039675D01*
X001474Y036612D02*
X001047Y036612D01*
X001261Y036399D02*
X001261Y036826D01*
X001261Y035537D02*
X001581Y035537D01*
X001261Y035537D02*
X001154Y035430D01*
X001154Y035110D01*
X001581Y035110D01*
X001581Y034893D02*
X001581Y034680D01*
X001581Y034787D02*
X000940Y034787D01*
X000940Y034893D02*
X000940Y034680D01*
X001261Y033818D02*
X001261Y033391D01*
X001367Y030962D02*
X000940Y030962D01*
X000940Y030535D02*
X001367Y030535D01*
X001581Y030749D01*
X001367Y030962D01*
X001261Y030318D02*
X001154Y030211D01*
X001154Y030104D01*
X001261Y029891D01*
X000940Y029891D01*
X000940Y030318D01*
X001261Y030318D02*
X001474Y030318D01*
X001581Y030211D01*
X001581Y029998D01*
X001474Y029891D01*
X001581Y027107D02*
X000940Y027107D01*
X001154Y027107D02*
X001154Y026787D01*
X001261Y026680D01*
X001474Y026680D01*
X001581Y026787D01*
X001581Y027107D01*
X001581Y026462D02*
X001261Y026462D01*
X001154Y026356D01*
X001154Y026035D01*
X001581Y026035D01*
X001474Y025818D02*
X001261Y025818D01*
X001261Y025604D01*
X001474Y025391D02*
X001581Y025498D01*
X001581Y025711D01*
X001474Y025818D01*
X001047Y025818D02*
X000940Y025711D01*
X000940Y025498D01*
X001047Y025391D01*
X001474Y025391D01*
X011257Y021211D02*
X011684Y021211D01*
X011902Y021211D02*
X011902Y021531D01*
X012329Y021531D01*
X012546Y021531D02*
X012546Y021104D01*
X012760Y020891D01*
X012973Y021104D01*
X012973Y021531D01*
X012329Y021211D02*
X012329Y020998D01*
X012222Y020891D01*
X012009Y020891D01*
X011902Y020998D01*
X011902Y021211D02*
X012115Y021318D01*
X012222Y021318D01*
X012329Y021211D01*
X011471Y021425D02*
X011471Y020998D01*
X019890Y021973D02*
X020211Y021653D01*
X020211Y022080D01*
X020424Y022297D02*
X020424Y022404D01*
X020531Y022404D01*
X020531Y022297D01*
X020424Y022297D01*
X020531Y022619D02*
X020531Y023046D01*
X020531Y022833D02*
X019890Y022833D01*
X020104Y022619D01*
X019890Y021973D02*
X020531Y021973D01*
X020531Y020791D02*
X020531Y020470D01*
X020424Y020364D01*
X020104Y020364D01*
X020104Y020146D02*
X020104Y019826D01*
X020211Y019719D01*
X020317Y019826D01*
X020317Y020039D01*
X020424Y020146D01*
X020531Y020039D01*
X020531Y019719D01*
X020531Y019501D02*
X020211Y019501D01*
X020104Y019395D01*
X020104Y019074D01*
X020531Y019074D01*
X020317Y018857D02*
X020317Y018430D01*
X020211Y018430D02*
X020104Y018537D01*
X020104Y018750D01*
X020211Y018857D01*
X020317Y018857D01*
X020531Y018750D02*
X020531Y018537D01*
X020424Y018430D01*
X020211Y018430D01*
X020211Y018212D02*
X020317Y018212D01*
X020317Y017785D01*
X020211Y017785D02*
X020104Y017892D01*
X020104Y018106D01*
X020211Y018212D01*
X020531Y018106D02*
X020531Y017892D01*
X020424Y017785D01*
X020211Y017785D01*
X019890Y017568D02*
X019890Y017141D01*
X019890Y017354D02*
X020531Y017354D01*
X020744Y020577D02*
X020744Y020684D01*
X020638Y020791D01*
X020104Y020791D01*
X025611Y015611D02*
X027611Y015611D01*
X027611Y014611D01*
X025611Y014611D01*
X025611Y013611D01*
X027611Y013611D01*
X027611Y014611D01*
X027611Y013611D02*
X027611Y012611D01*
X025611Y012611D01*
X025611Y011561D01*
X027611Y011561D01*
X027611Y012611D01*
X025611Y012611D02*
X025611Y013611D01*
X025611Y014611D02*
X025611Y015611D01*
X032141Y010781D02*
X032141Y010354D01*
X032354Y010141D01*
X032568Y010354D01*
X032568Y010781D01*
X032785Y010568D02*
X032892Y010568D01*
X032892Y010141D01*
X032785Y010141D02*
X032999Y010141D01*
X033215Y010248D02*
X033215Y010461D01*
X033322Y010568D01*
X033535Y010568D01*
X033642Y010461D01*
X033642Y010248D01*
X033535Y010141D01*
X033322Y010141D01*
X033215Y010248D01*
X032892Y010781D02*
X032892Y010888D01*
X036757Y009081D02*
X036757Y008441D01*
X037184Y008441D01*
X037402Y008441D02*
X037829Y009081D01*
X038046Y009081D02*
X038367Y009081D01*
X038473Y008975D01*
X038473Y008761D01*
X038367Y008654D01*
X038046Y008654D01*
X038046Y008441D02*
X038046Y009081D01*
X037402Y009081D02*
X037829Y008441D01*
X037184Y009081D02*
X036757Y009081D01*
X036757Y008761D02*
X036971Y008761D01*
X036797Y007187D02*
X036690Y007080D01*
X036690Y006866D01*
X036797Y006760D01*
X037224Y006760D01*
X037331Y006866D01*
X037331Y007080D01*
X037224Y007187D01*
X036797Y007187D01*
X036690Y006543D02*
X036690Y006330D01*
X036690Y006437D02*
X037331Y006437D01*
X037331Y006543D02*
X037331Y006330D01*
X037011Y006112D02*
X037117Y006006D01*
X037117Y005685D01*
X037331Y005685D02*
X036690Y005685D01*
X036690Y006006D01*
X036797Y006112D01*
X037011Y006112D01*
X037011Y005468D02*
X037011Y005254D01*
X037011Y005468D02*
X037224Y005468D01*
X037331Y005361D01*
X037331Y005148D01*
X037224Y005041D01*
X036797Y005041D01*
X036690Y005148D01*
X036690Y005361D01*
X036797Y005468D01*
X037015Y001388D02*
X037015Y001281D01*
X037015Y001068D02*
X037015Y000641D01*
X036908Y000641D02*
X037122Y000641D01*
X037338Y000641D02*
X037658Y000641D01*
X037765Y000748D01*
X037765Y000961D01*
X037658Y001068D01*
X037338Y001068D01*
X037338Y000427D01*
X037983Y000641D02*
X038303Y000641D01*
X038410Y000748D01*
X038303Y000854D01*
X038089Y000854D01*
X037983Y000961D01*
X038089Y001068D01*
X038410Y001068D01*
X037015Y001068D02*
X036908Y001068D01*
X036692Y001068D02*
X036585Y001068D01*
X036371Y000854D01*
X036371Y000641D02*
X036371Y001068D01*
X036155Y001068D02*
X035942Y001068D01*
X036048Y001175D02*
X036048Y000748D01*
X036155Y000641D01*
X035724Y000748D02*
X035724Y000854D01*
X035617Y000961D01*
X035404Y000961D01*
X035297Y001068D01*
X035297Y001175D01*
X035404Y001281D01*
X035617Y001281D01*
X035724Y001175D01*
X035724Y000748D02*
X035617Y000641D01*
X035404Y000641D01*
X035297Y000748D01*
X034435Y000748D02*
X034435Y001175D01*
X034328Y001281D01*
X034008Y001281D01*
X034008Y000641D01*
X034328Y000641D01*
X034435Y000748D01*
X033791Y000641D02*
X033364Y000641D01*
X033364Y001281D01*
X033791Y001281D01*
X033577Y000961D02*
X033364Y000961D01*
X033146Y000641D02*
X032719Y000641D01*
X032719Y001281D01*
X031857Y000961D02*
X031430Y000961D01*
X031212Y000961D02*
X030785Y000961D01*
X030568Y000641D02*
X030141Y000961D01*
X030568Y001281D01*
X028923Y001331D02*
X028923Y000904D01*
X028710Y000691D01*
X028496Y000904D01*
X028496Y001331D01*
X027173Y001011D02*
X026746Y001011D01*
X027067Y001331D01*
X027067Y000691D01*
X026529Y000798D02*
X026529Y001225D01*
X026422Y001331D01*
X026209Y001331D01*
X026102Y001225D01*
X026102Y000798D01*
X026209Y000691D01*
X026422Y000691D01*
X026529Y000798D01*
X024923Y000798D02*
X024923Y001011D01*
X024710Y001011D01*
X024923Y000798D02*
X024817Y000691D01*
X024603Y000691D01*
X024496Y000798D01*
X024496Y001225D01*
X024603Y001331D01*
X024817Y001331D01*
X024923Y001225D01*
X022923Y001331D02*
X022923Y000904D01*
X022710Y000691D01*
X022496Y000904D01*
X022496Y001331D01*
X021173Y001225D02*
X021173Y001118D01*
X021067Y001011D01*
X021173Y000904D01*
X021173Y000798D01*
X021067Y000691D01*
X020853Y000691D01*
X020746Y000798D01*
X020529Y000798D02*
X020529Y001225D01*
X020422Y001331D01*
X020209Y001331D01*
X020102Y001225D01*
X020102Y000798D01*
X020209Y000691D01*
X020422Y000691D01*
X020529Y000798D01*
X020746Y001225D02*
X020853Y001331D01*
X021067Y001331D01*
X021173Y001225D01*
X021067Y001011D02*
X020960Y001011D01*
X018923Y001011D02*
X018923Y000798D01*
X018817Y000691D01*
X018603Y000691D01*
X018496Y000798D01*
X018496Y001225D01*
X018603Y001331D01*
X018817Y001331D01*
X018923Y001225D01*
X018923Y001011D02*
X018710Y001011D01*
X016923Y000904D02*
X016923Y001331D01*
X016923Y000904D02*
X016710Y000691D01*
X016496Y000904D01*
X016496Y001331D01*
X015173Y001225D02*
X015067Y001331D01*
X014853Y001331D01*
X014746Y001225D01*
X014529Y001225D02*
X014529Y000798D01*
X014422Y000691D01*
X014209Y000691D01*
X014102Y000798D01*
X014102Y001225D01*
X014209Y001331D01*
X014422Y001331D01*
X014529Y001225D01*
X014746Y000691D02*
X015173Y001118D01*
X015173Y001225D01*
X015173Y000691D02*
X014746Y000691D01*
X012923Y000798D02*
X012923Y001011D01*
X012710Y001011D01*
X012923Y000798D02*
X012817Y000691D01*
X012603Y000691D01*
X012496Y000798D01*
X012496Y001225D01*
X012603Y001331D01*
X012817Y001331D01*
X012923Y001225D01*
X010673Y001331D02*
X010673Y000904D01*
X010460Y000691D01*
X010246Y000904D01*
X010246Y001331D01*
X008923Y000691D02*
X008496Y000691D01*
X008710Y000691D02*
X008710Y001331D01*
X008496Y001118D01*
X008279Y001225D02*
X008279Y000798D01*
X008172Y000691D01*
X007959Y000691D01*
X007852Y000798D01*
X007852Y001225D01*
X007959Y001331D01*
X008172Y001331D01*
X008279Y001225D01*
X006673Y001225D02*
X006567Y001331D01*
X006353Y001331D01*
X006246Y001225D01*
X006246Y000798D01*
X006353Y000691D01*
X006567Y000691D01*
X006673Y000798D01*
X006673Y001011D01*
X006460Y001011D01*
X029354Y025641D02*
X029354Y026281D01*
X029141Y026281D02*
X029568Y026281D01*
X029785Y025961D02*
X029892Y026068D01*
X030106Y026068D01*
X030212Y025961D01*
X030212Y025854D01*
X029785Y025854D01*
X029785Y025748D02*
X029785Y025961D01*
X029785Y025748D02*
X029892Y025641D01*
X030106Y025641D01*
X030430Y025748D02*
X030430Y025961D01*
X030537Y026068D01*
X030750Y026068D01*
X030857Y025961D01*
X030857Y025854D01*
X030430Y025854D01*
X030430Y025748D02*
X030537Y025641D01*
X030750Y025641D01*
X031074Y025641D02*
X031074Y026068D01*
X031395Y026068D01*
X031501Y025961D01*
X031501Y025641D01*
X031719Y025641D02*
X032039Y025641D01*
X032146Y025748D01*
X032039Y025854D01*
X031826Y025854D01*
X031719Y025961D01*
X031826Y026068D01*
X032146Y026068D01*
X032364Y026068D02*
X032364Y025748D01*
X032470Y025641D01*
X032791Y025641D01*
X032791Y025534D02*
X032684Y025427D01*
X032577Y025427D01*
X032791Y025534D02*
X032791Y026068D01*
X033653Y026068D02*
X033653Y025641D01*
X033653Y025961D02*
X034080Y025961D01*
X034080Y026068D02*
X034080Y025641D01*
X034297Y025748D02*
X034404Y025641D01*
X034724Y025641D01*
X034724Y026068D01*
X034942Y025961D02*
X035048Y026068D01*
X035369Y026068D01*
X035369Y026281D02*
X035369Y025641D01*
X035048Y025641D01*
X034942Y025748D01*
X034942Y025961D01*
X035586Y026068D02*
X035693Y026068D01*
X035693Y025641D01*
X035586Y025641D02*
X035800Y025641D01*
X036016Y025748D02*
X036123Y025641D01*
X036336Y025641D01*
X036443Y025748D01*
X036443Y025961D01*
X036336Y026068D01*
X036123Y026068D01*
X036016Y025961D01*
X036016Y025748D01*
X035693Y026281D02*
X035693Y026388D01*
X034297Y026068D02*
X034297Y025748D01*
X034080Y026068D02*
X033866Y026281D01*
X033653Y026068D01*
X037305Y025961D02*
X037732Y025961D01*
X037625Y025641D02*
X037625Y026281D01*
X037305Y025961D01*
X034469Y033891D02*
X034255Y033891D01*
X034149Y033998D01*
X034149Y034211D01*
X034255Y034318D01*
X034469Y034318D01*
X034576Y034211D01*
X034576Y034104D01*
X034149Y034104D01*
X033931Y034211D02*
X033931Y033891D01*
X033718Y033891D02*
X033718Y034211D01*
X033824Y034318D01*
X033931Y034211D01*
X033718Y034211D02*
X033611Y034318D01*
X033504Y034318D01*
X033504Y033891D01*
X033287Y033891D02*
X033287Y034318D01*
X033287Y033891D02*
X032966Y033891D01*
X032860Y033998D01*
X032860Y034318D01*
X032537Y034531D02*
X032537Y033891D01*
X032643Y033891D02*
X032430Y033891D01*
X032212Y033998D02*
X032212Y034211D01*
X032106Y034318D01*
X031892Y034318D01*
X031785Y034211D01*
X031785Y033998D01*
X031892Y033891D01*
X032106Y033891D01*
X032212Y033998D01*
X032430Y034531D02*
X032537Y034531D01*
X031568Y034531D02*
X031568Y034104D01*
X031354Y033891D01*
X031141Y034104D01*
X031141Y034531D01*
X031511Y037391D02*
X031724Y037391D01*
X031831Y037498D01*
X031831Y037925D01*
X031724Y038031D01*
X031511Y038031D01*
X031404Y037925D01*
X031404Y037498D01*
X031511Y037391D01*
X032049Y037391D02*
X032476Y037391D01*
X032693Y037391D02*
X033120Y037391D01*
X033338Y037391D02*
X033658Y037391D01*
X033765Y037498D01*
X033765Y037925D01*
X033658Y038031D01*
X033338Y038031D01*
X033338Y037391D01*
X032907Y037711D02*
X032693Y037711D01*
X032693Y038031D02*
X032693Y037391D01*
X032693Y038031D02*
X033120Y038031D01*
X032049Y038031D02*
X032049Y037391D01*
X030542Y037498D02*
X030435Y037391D01*
X030222Y037391D01*
X030115Y037498D01*
X030115Y037925D01*
X030222Y038031D01*
X030435Y038031D01*
X030542Y037925D01*
X029898Y037925D02*
X029791Y038031D01*
X029577Y038031D01*
X029471Y037925D01*
X029254Y038031D02*
X029041Y038031D01*
X029148Y038031D02*
X029148Y037391D01*
X029254Y037391D02*
X029041Y037391D01*
X029471Y037391D02*
X029898Y037818D01*
X029898Y037925D01*
X029898Y037391D02*
X029471Y037391D01*
D12*
X022274Y032715D02*
X021813Y032715D01*
X021660Y032561D01*
X021813Y032408D01*
X022120Y032408D01*
X022274Y032254D01*
X022120Y032101D01*
X021660Y032101D01*
X021353Y032254D02*
X021353Y032561D01*
X021200Y032715D01*
X020739Y032715D01*
X020739Y033022D02*
X020739Y032101D01*
X021200Y032101D01*
X021353Y032254D01*
X020432Y032101D02*
X019972Y032101D01*
X019818Y032254D01*
X019972Y032408D01*
X020432Y032408D01*
X020432Y032561D02*
X020432Y032101D01*
X020432Y032561D02*
X020279Y032715D01*
X019972Y032715D01*
X019511Y032101D02*
X018898Y032101D01*
X018898Y033022D01*
X017670Y032101D02*
X017363Y032101D01*
X017517Y032101D02*
X017517Y032715D01*
X017363Y032715D01*
X017517Y033022D02*
X017517Y033175D01*
X017056Y032868D02*
X017056Y032561D01*
X016903Y032408D01*
X016442Y032408D01*
X016442Y032101D02*
X016442Y033022D01*
X016903Y033022D01*
X017056Y032868D01*
X016135Y032561D02*
X015522Y032561D01*
X015215Y032715D02*
X015215Y032868D01*
X015061Y033022D01*
X014754Y033022D01*
X014601Y032868D01*
X015215Y032715D02*
X014601Y032101D01*
X015215Y032101D01*
X012354Y018734D02*
X012967Y018121D01*
X013121Y018121D01*
X013121Y017814D02*
X013121Y017660D01*
X012967Y017660D01*
X012967Y017814D01*
X013121Y017814D01*
X012967Y017353D02*
X012354Y017353D01*
X012967Y016739D01*
X013121Y016893D01*
X013121Y017200D01*
X012967Y017353D01*
X012354Y017353D02*
X012200Y017200D01*
X012200Y016893D01*
X012354Y016739D01*
X012967Y016739D01*
X012967Y016433D02*
X013121Y016433D01*
X013121Y016279D01*
X012967Y016279D01*
X012967Y016433D01*
X013121Y015972D02*
X013121Y015358D01*
X013121Y015665D02*
X012200Y015665D01*
X012507Y015358D01*
X012507Y015051D02*
X013121Y014744D01*
X012507Y014438D01*
X012661Y013210D02*
X012507Y013056D01*
X012507Y012750D01*
X012661Y012596D01*
X012967Y012596D01*
X013121Y012750D01*
X013121Y013056D01*
X012967Y013210D01*
X012661Y013210D01*
X012661Y012289D02*
X012507Y012136D01*
X012507Y011675D01*
X012200Y011675D02*
X013121Y011675D01*
X013121Y012136D01*
X012967Y012289D01*
X012661Y012289D01*
X012661Y011368D02*
X012507Y011215D01*
X012507Y010908D01*
X012661Y010755D01*
X012967Y010755D01*
X013121Y010908D01*
X013121Y011215D01*
X012967Y011368D01*
X012661Y011368D01*
X013121Y010448D02*
X012200Y010448D01*
X012507Y010141D01*
X012200Y009834D01*
X013121Y009834D01*
X012967Y008606D02*
X013121Y008453D01*
X013121Y008146D01*
X012967Y007992D01*
X012354Y007992D01*
X012200Y008146D01*
X012200Y008453D01*
X012354Y008606D01*
X012200Y007685D02*
X013121Y007685D01*
X012814Y007379D01*
X013121Y007072D01*
X012200Y007072D01*
X012200Y006765D02*
X013121Y006765D01*
X013121Y006151D02*
X012200Y006151D01*
X012507Y006458D01*
X012200Y006765D01*
X012200Y018121D02*
X012200Y018734D01*
X012354Y018734D01*
D13*
X017526Y015559D02*
X017896Y015559D01*
X017711Y015559D02*
X017711Y015312D01*
X017649Y015191D02*
X017896Y015068D01*
X017649Y014944D01*
X017711Y014823D02*
X017772Y014761D01*
X017772Y014576D01*
X017772Y014699D02*
X017896Y014823D01*
X017711Y014823D02*
X017587Y014823D01*
X017526Y014761D01*
X017526Y014576D01*
X017896Y014576D01*
X017846Y013909D02*
X017846Y013662D01*
X017476Y013662D01*
X017599Y013541D02*
X017846Y013418D01*
X017599Y013294D01*
X017537Y013173D02*
X017661Y013173D01*
X017722Y013111D01*
X017722Y012926D01*
X017722Y013049D02*
X017846Y013173D01*
X017846Y012926D02*
X017476Y012926D01*
X017476Y013111D01*
X017537Y013173D01*
X017476Y012259D02*
X017846Y012259D01*
X017661Y012259D02*
X017661Y012012D01*
X017661Y011891D02*
X017537Y011891D01*
X017476Y011829D01*
X017476Y011644D01*
X017846Y011644D01*
X017722Y011644D02*
X017722Y011829D01*
X017661Y011891D01*
X017722Y011768D02*
X017846Y011891D01*
X017846Y012012D02*
X017476Y012012D01*
X017476Y011523D02*
X017722Y011523D01*
X017846Y011399D01*
X017722Y011276D01*
X017476Y011276D01*
X017846Y010909D02*
X017846Y010662D01*
X017476Y010662D01*
X017537Y010541D02*
X017476Y010479D01*
X017476Y010356D01*
X017537Y010294D01*
X017784Y010294D01*
X017846Y010356D01*
X017846Y010479D01*
X017784Y010541D01*
X017722Y010173D02*
X017476Y010173D01*
X017722Y010173D02*
X017846Y010049D01*
X017722Y009926D01*
X017476Y009926D01*
X019349Y012126D02*
X019226Y012249D01*
X019226Y012496D01*
X019473Y012496D02*
X019473Y012249D01*
X019349Y012126D01*
X019594Y012126D02*
X019594Y012373D01*
X019594Y012249D02*
X019718Y012373D01*
X019779Y012373D01*
X019901Y012311D02*
X019963Y012373D01*
X020086Y012373D01*
X020148Y012311D01*
X020148Y012249D01*
X019901Y012249D01*
X019901Y012188D02*
X019901Y012311D01*
X019901Y012188D02*
X019963Y012126D01*
X020086Y012126D01*
X020331Y012126D02*
X020331Y012434D01*
X020393Y012496D01*
X020393Y012311D02*
X020269Y012311D01*
X017896Y015312D02*
X017526Y015312D01*
X029826Y008354D02*
X029887Y008292D01*
X030196Y008292D01*
X030196Y008109D02*
X029949Y008109D01*
X030011Y008230D02*
X030011Y008354D01*
X030196Y008109D02*
X030196Y007924D01*
X030134Y007862D01*
X029949Y007862D01*
X029826Y007617D02*
X030196Y007617D01*
X030196Y007494D02*
X030196Y007741D01*
X029949Y007494D02*
X029826Y007617D01*
X030134Y007371D02*
X030196Y007371D01*
X030196Y007310D01*
X030134Y007310D01*
X030134Y007371D01*
X030134Y007188D02*
X030196Y007126D01*
X030196Y007003D01*
X030134Y006941D01*
X029887Y007188D01*
X030134Y007188D01*
X029887Y007188D02*
X029826Y007126D01*
X029826Y007003D01*
X029887Y006941D01*
X030134Y006941D01*
X030776Y007002D02*
X031146Y007002D01*
X031146Y007125D02*
X031146Y006878D01*
X031146Y006756D02*
X031146Y006694D01*
X031084Y006694D01*
X031084Y006756D01*
X031146Y006756D01*
X031084Y006573D02*
X030837Y006573D01*
X031084Y006326D01*
X031146Y006388D01*
X031146Y006511D01*
X031084Y006573D01*
X030837Y006573D02*
X030776Y006511D01*
X030776Y006388D01*
X030837Y006326D01*
X031084Y006326D01*
X030899Y006878D02*
X030776Y007002D01*
X030899Y007247D02*
X031084Y007247D01*
X031146Y007308D01*
X031146Y007493D01*
X030899Y007493D01*
X030961Y007615D02*
X030961Y007738D01*
X030837Y007677D02*
X030776Y007738D01*
X030837Y007677D02*
X031146Y007677D01*
X034776Y007554D02*
X034837Y007492D01*
X035146Y007492D01*
X035146Y007309D02*
X034899Y007309D01*
X034961Y007430D02*
X034961Y007554D01*
X035146Y007309D02*
X035146Y007124D01*
X035084Y007062D01*
X034899Y007062D01*
X034776Y006817D02*
X035146Y006817D01*
X035146Y006694D02*
X035146Y006941D01*
X034899Y006694D02*
X034776Y006817D01*
X035084Y006571D02*
X035146Y006571D01*
X035146Y006510D01*
X035084Y006510D01*
X035084Y006571D01*
X035084Y006388D02*
X035146Y006326D01*
X035146Y006203D01*
X035084Y006141D01*
X034837Y006388D01*
X035084Y006388D01*
X034837Y006388D02*
X034776Y006326D01*
X034776Y006203D01*
X034837Y006141D01*
X035084Y006141D01*
X035533Y009676D02*
X035656Y009676D01*
X035718Y009738D01*
X035718Y009861D01*
X035594Y009861D01*
X035471Y009984D02*
X035471Y009738D01*
X035533Y009676D01*
X035839Y009676D02*
X035839Y009923D01*
X036024Y009923D01*
X036086Y009861D01*
X036086Y009676D01*
X036208Y009738D02*
X036208Y009861D01*
X036269Y009923D01*
X036454Y009923D01*
X036454Y010046D02*
X036454Y009676D01*
X036269Y009676D01*
X036208Y009738D01*
X035718Y009984D02*
X035656Y010046D01*
X035533Y010046D01*
X035471Y009984D01*
X035583Y010626D02*
X035521Y010688D01*
X035583Y010626D02*
X035706Y010626D01*
X035768Y010688D01*
X035768Y010749D01*
X035706Y010811D01*
X035644Y010811D01*
X035706Y010811D02*
X035768Y010873D01*
X035768Y010934D01*
X035706Y010996D01*
X035583Y010996D01*
X035521Y010934D01*
X035399Y010811D02*
X035153Y010811D01*
X035276Y010934D02*
X035276Y010688D01*
X035889Y010749D02*
X036013Y010626D01*
X036136Y010749D01*
X036136Y010996D01*
X036258Y010934D02*
X036319Y010996D01*
X036443Y010996D01*
X036504Y010934D01*
X036504Y010873D01*
X036443Y010811D01*
X036504Y010749D01*
X036504Y010688D01*
X036443Y010626D01*
X036319Y010626D01*
X036258Y010688D01*
X036381Y010811D02*
X036443Y010811D01*
X035889Y010749D02*
X035889Y010996D01*
X035901Y011626D02*
X036024Y011626D01*
X036086Y011688D01*
X036208Y011626D02*
X036454Y011626D01*
X036208Y011626D02*
X036208Y011996D01*
X036086Y011934D02*
X036024Y011996D01*
X035901Y011996D01*
X035839Y011934D01*
X035839Y011688D01*
X035901Y011626D01*
X035718Y011688D02*
X035656Y011626D01*
X035533Y011626D01*
X035471Y011688D01*
X035533Y011811D02*
X035656Y011811D01*
X035718Y011749D01*
X035718Y011688D01*
X035533Y011811D02*
X035471Y011873D01*
X035471Y011934D01*
X035533Y011996D01*
X035656Y011996D01*
X035718Y011934D01*
X035656Y012626D02*
X035533Y012626D01*
X035471Y012688D01*
X035533Y012811D02*
X035656Y012811D01*
X035718Y012749D01*
X035718Y012688D01*
X035656Y012626D01*
X035839Y012626D02*
X036024Y012626D01*
X036086Y012688D01*
X036086Y012934D01*
X036024Y012996D01*
X035839Y012996D01*
X035839Y012626D01*
X035718Y012934D02*
X035656Y012996D01*
X035533Y012996D01*
X035471Y012934D01*
X035471Y012873D01*
X035533Y012811D01*
X036208Y012811D02*
X036454Y012811D01*
X036454Y012873D02*
X036454Y012626D01*
X036208Y012626D02*
X036208Y012873D01*
X036331Y012996D01*
X036454Y012873D01*
X036404Y013676D02*
X036219Y013676D01*
X036158Y013738D01*
X036158Y013861D01*
X036219Y013923D01*
X036404Y013923D01*
X036404Y014046D02*
X036404Y013676D01*
X036036Y013676D02*
X036036Y013861D01*
X035974Y013923D01*
X035789Y013923D01*
X035789Y013676D01*
X035668Y013738D02*
X035668Y013861D01*
X035544Y013861D01*
X035421Y013738D02*
X035483Y013676D01*
X035606Y013676D01*
X035668Y013738D01*
X035668Y013984D02*
X035606Y014046D01*
X035483Y014046D01*
X035421Y013984D01*
X035421Y013738D01*
X035483Y014676D02*
X035421Y014738D01*
X035483Y014676D02*
X035606Y014676D01*
X035668Y014738D01*
X035668Y014799D01*
X035606Y014861D01*
X035544Y014861D01*
X035606Y014861D02*
X035668Y014923D01*
X035668Y014984D01*
X035606Y015046D01*
X035483Y015046D01*
X035421Y014984D01*
X035789Y015046D02*
X035789Y014799D01*
X035913Y014676D01*
X036036Y014799D01*
X036036Y015046D01*
X036158Y014984D02*
X036219Y015046D01*
X036343Y015046D01*
X036404Y014984D01*
X036404Y014923D01*
X036343Y014861D01*
X036404Y014799D01*
X036404Y014738D01*
X036343Y014676D01*
X036219Y014676D01*
X036158Y014738D01*
X036281Y014861D02*
X036343Y014861D01*
X036281Y015676D02*
X036404Y015799D01*
X036404Y016046D01*
X036158Y016046D02*
X036158Y015799D01*
X036281Y015676D01*
X036036Y015738D02*
X035974Y015676D01*
X035851Y015676D01*
X035789Y015738D01*
X035789Y015861D02*
X035913Y015923D01*
X035974Y015923D01*
X036036Y015861D01*
X036036Y015738D01*
X035789Y015861D02*
X035789Y016046D01*
X036036Y016046D01*
X036035Y016676D02*
X035912Y016676D01*
X035974Y016676D02*
X035974Y016923D01*
X035912Y016923D01*
X035974Y017046D02*
X035974Y017108D01*
X035791Y017046D02*
X035791Y016799D01*
X035667Y016676D01*
X035544Y016799D01*
X035544Y017046D01*
X036158Y016923D02*
X036343Y016923D01*
X036404Y016861D01*
X036404Y016676D01*
X036158Y016676D02*
X036158Y016923D01*
X036054Y017876D02*
X035808Y017876D01*
X036054Y018123D01*
X036054Y018184D01*
X035993Y018246D01*
X035869Y018246D01*
X035808Y018184D01*
X035686Y018246D02*
X035439Y018246D01*
X035439Y017876D01*
X035686Y017876D01*
X035563Y018061D02*
X035439Y018061D01*
X038726Y017046D02*
X038726Y016676D01*
X038973Y016676D01*
X039094Y016676D02*
X039341Y016923D01*
X039341Y016984D01*
X039279Y017046D01*
X039156Y017046D01*
X039094Y016984D01*
X038973Y017046D02*
X038726Y017046D01*
X038726Y016861D02*
X038849Y016861D01*
X039094Y016676D02*
X039341Y016676D01*
X039218Y016046D02*
X039218Y015676D01*
X039341Y015676D02*
X039094Y015676D01*
X038973Y015676D02*
X038726Y015676D01*
X038726Y016046D01*
X038973Y016046D01*
X039094Y015923D02*
X039218Y016046D01*
X038849Y015861D02*
X038726Y015861D01*
X038676Y015046D02*
X038799Y014923D01*
X038923Y015046D01*
X038923Y014676D01*
X039044Y014676D02*
X039168Y014676D01*
X039106Y014676D02*
X039106Y015046D01*
X039044Y015046D02*
X039168Y015046D01*
X039290Y014984D02*
X039290Y014923D01*
X039351Y014861D01*
X039475Y014861D01*
X039537Y014799D01*
X039537Y014738D01*
X039475Y014676D01*
X039351Y014676D01*
X039290Y014738D01*
X039290Y014984D02*
X039351Y015046D01*
X039475Y015046D01*
X039537Y014984D01*
X039658Y014984D02*
X039658Y014738D01*
X039720Y014676D01*
X039843Y014676D01*
X039905Y014738D01*
X039905Y014984D01*
X039843Y015046D01*
X039720Y015046D01*
X039658Y014984D01*
X038676Y015046D02*
X038676Y014676D01*
X038788Y014046D02*
X038726Y013984D01*
X038726Y013738D01*
X038788Y013676D01*
X038911Y013676D01*
X038973Y013738D01*
X039094Y013676D02*
X039341Y013676D01*
X039462Y013676D02*
X039462Y014046D01*
X039524Y013861D02*
X039709Y013676D01*
X039462Y013799D02*
X039709Y014046D01*
X039094Y014046D02*
X039094Y013676D01*
X038973Y013984D02*
X038911Y014046D01*
X038788Y014046D01*
X038676Y013046D02*
X038799Y012923D01*
X038923Y013046D01*
X038923Y012676D01*
X039044Y012738D02*
X039044Y012984D01*
X039106Y013046D01*
X039229Y013046D01*
X039291Y012984D01*
X039291Y012738D01*
X039229Y012676D01*
X039106Y012676D01*
X039044Y012738D01*
X039412Y012738D02*
X039474Y012676D01*
X039598Y012676D01*
X039659Y012738D01*
X039659Y012799D01*
X039598Y012861D01*
X039474Y012861D01*
X039412Y012923D01*
X039412Y012984D01*
X039474Y013046D01*
X039598Y013046D01*
X039659Y012984D01*
X039781Y013046D02*
X039904Y013046D01*
X039842Y013046D02*
X039842Y012676D01*
X039781Y012676D02*
X039904Y012676D01*
X039536Y012096D02*
X039536Y011726D01*
X039659Y011726D02*
X039412Y011726D01*
X039229Y011726D02*
X039229Y012096D01*
X039044Y011911D01*
X039291Y011911D01*
X039412Y011973D02*
X039536Y012096D01*
X038923Y012034D02*
X038923Y011911D01*
X038861Y011849D01*
X038676Y011849D01*
X038676Y011726D02*
X038676Y012096D01*
X038861Y012096D01*
X038923Y012034D01*
X038676Y012676D02*
X038676Y013046D01*
X038676Y011096D02*
X038861Y011096D01*
X038923Y011034D01*
X038923Y010911D01*
X038861Y010849D01*
X038676Y010849D01*
X038676Y010726D02*
X038676Y011096D01*
X039044Y010911D02*
X039291Y010911D01*
X039412Y010788D02*
X039474Y010726D01*
X039598Y010726D01*
X039659Y010788D01*
X039659Y011034D01*
X039412Y010788D01*
X039412Y011034D01*
X039474Y011096D01*
X039598Y011096D01*
X039659Y011034D01*
X039229Y011096D02*
X039229Y010726D01*
X039044Y010911D02*
X039229Y011096D01*
X039229Y010096D02*
X039291Y010034D01*
X039291Y009973D01*
X039229Y009911D01*
X039291Y009849D01*
X039291Y009788D01*
X039229Y009726D01*
X039106Y009726D01*
X039044Y009788D01*
X038923Y009911D02*
X038923Y010034D01*
X038861Y010096D01*
X038676Y010096D01*
X038676Y009726D01*
X038676Y009849D02*
X038861Y009849D01*
X038923Y009911D01*
X039044Y010034D02*
X039106Y010096D01*
X039229Y010096D01*
X039229Y009911D02*
X039168Y009911D01*
X039412Y009973D02*
X039474Y009911D01*
X039659Y009911D01*
X039659Y009788D02*
X039659Y010034D01*
X039598Y010096D01*
X039474Y010096D01*
X039412Y010034D01*
X039412Y009973D01*
X039412Y009788D02*
X039474Y009726D01*
X039598Y009726D01*
X039659Y009788D01*
X039598Y007846D02*
X039659Y007784D01*
X039659Y007723D01*
X039598Y007661D01*
X039474Y007661D01*
X039412Y007723D01*
X039412Y007784D01*
X039474Y007846D01*
X039598Y007846D01*
X039598Y007661D02*
X039659Y007599D01*
X039659Y007538D01*
X039598Y007476D01*
X039474Y007476D01*
X039412Y007538D01*
X039412Y007599D01*
X039474Y007661D01*
X039291Y007599D02*
X039291Y007538D01*
X039229Y007476D01*
X039106Y007476D01*
X039044Y007538D01*
X038923Y007661D02*
X038861Y007599D01*
X038676Y007599D01*
X038676Y007476D02*
X038676Y007846D01*
X038861Y007846D01*
X038923Y007784D01*
X038923Y007661D01*
X039044Y007784D02*
X039106Y007846D01*
X039229Y007846D01*
X039291Y007784D01*
X039291Y007723D01*
X039229Y007661D01*
X039291Y007599D01*
X039229Y007661D02*
X039168Y007661D01*
X039229Y006846D02*
X039106Y006846D01*
X039044Y006784D01*
X038923Y006784D02*
X038923Y006661D01*
X038861Y006599D01*
X038676Y006599D01*
X038676Y006476D02*
X038676Y006846D01*
X038861Y006846D01*
X038923Y006784D01*
X039229Y006846D02*
X039291Y006784D01*
X039291Y006723D01*
X039044Y006476D01*
X039291Y006476D01*
X039412Y006476D02*
X039659Y006723D01*
X039659Y006784D01*
X039598Y006846D01*
X039474Y006846D01*
X039412Y006784D01*
X039412Y006476D02*
X039659Y006476D01*
X039781Y006846D02*
X039842Y006908D01*
X039966Y006784D01*
X040028Y006846D01*
X039659Y005846D02*
X039536Y005784D01*
X039412Y005661D01*
X039598Y005661D01*
X039659Y005599D01*
X039659Y005538D01*
X039598Y005476D01*
X039474Y005476D01*
X039412Y005538D01*
X039412Y005661D01*
X039291Y005476D02*
X039044Y005476D01*
X039168Y005476D02*
X039168Y005846D01*
X039044Y005723D01*
X038923Y005784D02*
X038861Y005846D01*
X038676Y005846D01*
X038676Y005476D01*
X038676Y005599D02*
X038861Y005599D01*
X038923Y005661D01*
X038923Y005784D01*
X038861Y004846D02*
X038923Y004784D01*
X038923Y004661D01*
X038861Y004599D01*
X038676Y004599D01*
X038676Y004476D02*
X038676Y004846D01*
X038861Y004846D01*
X039044Y004784D02*
X039106Y004846D01*
X039229Y004846D01*
X039291Y004784D01*
X039291Y004723D01*
X039229Y004661D01*
X039291Y004599D01*
X039291Y004538D01*
X039229Y004476D01*
X039106Y004476D01*
X039044Y004538D01*
X039168Y004661D02*
X039229Y004661D01*
X039412Y004538D02*
X039474Y004476D01*
X039598Y004476D01*
X039659Y004538D01*
X039659Y004599D01*
X039598Y004661D01*
X039536Y004661D01*
X039598Y004661D02*
X039659Y004723D01*
X039659Y004784D01*
X039598Y004846D01*
X039474Y004846D01*
X039412Y004784D01*
X039781Y004846D02*
X039842Y004908D01*
X039966Y004784D01*
X040028Y004846D01*
X036004Y002223D02*
X036004Y001976D01*
X035819Y001976D01*
X035758Y002038D01*
X035758Y002223D01*
X035636Y002161D02*
X035636Y002038D01*
X035574Y001976D01*
X035389Y001976D01*
X035268Y001976D02*
X035144Y002099D01*
X035206Y002099D02*
X035021Y002099D01*
X035021Y001976D02*
X035021Y002346D01*
X035206Y002346D01*
X035268Y002284D01*
X035268Y002161D01*
X035206Y002099D01*
X035389Y002223D02*
X035574Y002223D01*
X035636Y002161D01*
X035389Y002223D02*
X035389Y001852D01*
X038926Y017826D02*
X039173Y017826D01*
X039294Y017826D02*
X039541Y017826D01*
X039418Y017826D02*
X039418Y018196D01*
X039294Y018073D01*
X039173Y018196D02*
X038926Y018196D01*
X038926Y017826D01*
X038926Y018011D02*
X039049Y018011D01*
D14*
X028437Y008911D02*
X028439Y008941D01*
X028445Y008970D01*
X028455Y008998D01*
X028468Y009025D01*
X028485Y009050D01*
X028505Y009072D01*
X028528Y009091D01*
X028553Y009107D01*
X028580Y009120D01*
X028609Y009129D01*
X028639Y009134D01*
X028668Y009135D01*
X028698Y009132D01*
X028727Y009125D01*
X028755Y009114D01*
X028782Y009100D01*
X028806Y009082D01*
X028827Y009061D01*
X028846Y009038D01*
X028861Y009012D01*
X028873Y008984D01*
X028881Y008956D01*
X028884Y008926D01*
X028884Y008896D01*
X028881Y008866D01*
X028873Y008838D01*
X028861Y008810D01*
X028846Y008784D01*
X028827Y008761D01*
X028806Y008740D01*
X028782Y008722D01*
X028755Y008708D01*
X028727Y008697D01*
X028698Y008690D01*
X028668Y008687D01*
X028639Y008688D01*
X028609Y008693D01*
X028580Y008702D01*
X028553Y008715D01*
X028528Y008731D01*
X028505Y008750D01*
X028485Y008772D01*
X028468Y008797D01*
X028455Y008824D01*
X028445Y008852D01*
X028439Y008881D01*
X028437Y008911D01*
X032037Y006161D02*
X032039Y006191D01*
X032045Y006220D01*
X032055Y006248D01*
X032068Y006275D01*
X032085Y006300D01*
X032105Y006322D01*
X032128Y006341D01*
X032153Y006357D01*
X032180Y006370D01*
X032209Y006379D01*
X032239Y006384D01*
X032268Y006385D01*
X032298Y006382D01*
X032327Y006375D01*
X032355Y006364D01*
X032382Y006350D01*
X032406Y006332D01*
X032427Y006311D01*
X032446Y006288D01*
X032461Y006262D01*
X032473Y006234D01*
X032481Y006206D01*
X032484Y006176D01*
X032484Y006146D01*
X032481Y006116D01*
X032473Y006088D01*
X032461Y006060D01*
X032446Y006034D01*
X032427Y006011D01*
X032406Y005990D01*
X032382Y005972D01*
X032355Y005958D01*
X032327Y005947D01*
X032298Y005940D01*
X032268Y005937D01*
X032239Y005938D01*
X032209Y005943D01*
X032180Y005952D01*
X032153Y005965D01*
X032128Y005981D01*
X032105Y006000D01*
X032085Y006022D01*
X032068Y006047D01*
X032055Y006074D01*
X032045Y006102D01*
X032039Y006131D01*
X032037Y006161D01*
X010837Y012061D02*
X010839Y012091D01*
X010845Y012120D01*
X010855Y012148D01*
X010868Y012175D01*
X010885Y012200D01*
X010905Y012222D01*
X010928Y012241D01*
X010953Y012257D01*
X010980Y012270D01*
X011009Y012279D01*
X011039Y012284D01*
X011068Y012285D01*
X011098Y012282D01*
X011127Y012275D01*
X011155Y012264D01*
X011182Y012250D01*
X011206Y012232D01*
X011227Y012211D01*
X011246Y012188D01*
X011261Y012162D01*
X011273Y012134D01*
X011281Y012106D01*
X011284Y012076D01*
X011284Y012046D01*
X011281Y012016D01*
X011273Y011988D01*
X011261Y011960D01*
X011246Y011934D01*
X011227Y011911D01*
X011206Y011890D01*
X011182Y011872D01*
X011155Y011858D01*
X011127Y011847D01*
X011098Y011840D01*
X011068Y011837D01*
X011039Y011838D01*
X011009Y011843D01*
X010980Y011852D01*
X010953Y011865D01*
X010928Y011881D01*
X010905Y011900D01*
X010885Y011922D01*
X010868Y011947D01*
X010855Y011974D01*
X010845Y012002D01*
X010839Y012031D01*
X010837Y012061D01*
X010137Y008811D02*
X010139Y008841D01*
X010145Y008870D01*
X010155Y008898D01*
X010168Y008925D01*
X010185Y008950D01*
X010205Y008972D01*
X010228Y008991D01*
X010253Y009007D01*
X010280Y009020D01*
X010309Y009029D01*
X010339Y009034D01*
X010368Y009035D01*
X010398Y009032D01*
X010427Y009025D01*
X010455Y009014D01*
X010482Y009000D01*
X010506Y008982D01*
X010527Y008961D01*
X010546Y008938D01*
X010561Y008912D01*
X010573Y008884D01*
X010581Y008856D01*
X010584Y008826D01*
X010584Y008796D01*
X010581Y008766D01*
X010573Y008738D01*
X010561Y008710D01*
X010546Y008684D01*
X010527Y008661D01*
X010506Y008640D01*
X010482Y008622D01*
X010455Y008608D01*
X010427Y008597D01*
X010398Y008590D01*
X010368Y008587D01*
X010339Y008588D01*
X010309Y008593D01*
X010280Y008602D01*
X010253Y008615D01*
X010228Y008631D01*
X010205Y008650D01*
X010185Y008672D01*
X010168Y008697D01*
X010155Y008724D01*
X010145Y008752D01*
X010139Y008781D01*
X010137Y008811D01*
X010787Y016561D02*
X010789Y016591D01*
X010795Y016620D01*
X010805Y016648D01*
X010818Y016675D01*
X010835Y016700D01*
X010855Y016722D01*
X010878Y016741D01*
X010903Y016757D01*
X010930Y016770D01*
X010959Y016779D01*
X010989Y016784D01*
X011018Y016785D01*
X011048Y016782D01*
X011077Y016775D01*
X011105Y016764D01*
X011132Y016750D01*
X011156Y016732D01*
X011177Y016711D01*
X011196Y016688D01*
X011211Y016662D01*
X011223Y016634D01*
X011231Y016606D01*
X011234Y016576D01*
X011234Y016546D01*
X011231Y016516D01*
X011223Y016488D01*
X011211Y016460D01*
X011196Y016434D01*
X011177Y016411D01*
X011156Y016390D01*
X011132Y016372D01*
X011105Y016358D01*
X011077Y016347D01*
X011048Y016340D01*
X011018Y016337D01*
X010989Y016338D01*
X010959Y016343D01*
X010930Y016352D01*
X010903Y016365D01*
X010878Y016381D01*
X010855Y016400D01*
X010835Y016422D01*
X010818Y016447D01*
X010805Y016474D01*
X010795Y016502D01*
X010789Y016531D01*
X010787Y016561D01*
D15*
X019611Y034011D02*
X019611Y034861D01*
X019611Y036211D02*
X019611Y037061D01*
X019611Y038361D02*
X019611Y039211D01*
D16*
X023111Y037461D02*
X023311Y037261D01*
X023111Y037061D01*
X023111Y035311D02*
X023311Y035111D01*
X023111Y034911D01*
X024861Y035061D02*
X039861Y035061D01*
X039861Y039761D01*
X024861Y039761D01*
X024861Y035061D01*
X023111Y032161D02*
X023311Y031961D01*
X023111Y031761D01*
X015861Y036361D02*
X015361Y037061D01*
X014861Y036361D01*
X031861Y011111D02*
X030611Y009861D01*
X030611Y001861D01*
X029861Y001611D02*
X029861Y005361D01*
X005361Y005361D01*
X005361Y000611D01*
X029861Y001611D02*
X036861Y001611D01*
X036361Y008611D02*
X035361Y008611D01*
X035111Y008861D01*
X035111Y009861D01*
X033861Y011111D01*
X031861Y011111D01*
X038861Y008611D02*
X039861Y008611D01*
M02*
