G75*
G70*
%OFA0B0*%
%FSLAX24Y24*%
%IPPOS*%
%LPD*%
%AMOC8*
5,1,8,0,0,1.08239X$1,22.5*
%
%ADD10R,0.0700X0.0700*%
%ADD11OC8,0.0700*%
%ADD12R,0.0630X0.0512*%
%ADD13R,0.0800X0.0260*%
%ADD14R,0.0768X0.0768*%
%ADD15C,0.0768*%
%ADD16R,0.0512X0.0630*%
%ADD17R,0.0512X0.0591*%
%ADD18O,0.1120X0.0560*%
%ADD19R,0.0866X0.0236*%
%ADD20O,0.0560X0.1120*%
%ADD21R,0.0515X0.0515*%
%ADD22C,0.0515*%
%ADD23R,0.0394X0.0433*%
%ADD24R,0.0157X0.0591*%
%ADD25R,0.0591X0.0512*%
%ADD26R,0.1496X0.1102*%
%ADD27OC8,0.0850*%
%ADD28R,0.0433X0.0394*%
%ADD29R,0.0394X0.0551*%
%ADD30R,0.0594X0.0594*%
%ADD31C,0.0594*%
%ADD32C,0.1500*%
%ADD33C,0.0500*%
%ADD34C,0.1000*%
%ADD35C,0.0475*%
%ADD36C,0.0100*%
%ADD37C,0.0200*%
%ADD38C,0.0300*%
%ADD39C,0.0160*%
%ADD40C,0.0400*%
%ADD41C,0.0310*%
%ADD42C,0.0080*%
%ADD43C,0.0400*%
%ADD44C,0.0150*%
%ADD45C,0.0531*%
%ADD46C,0.2000*%
%ADD47C,0.0240*%
%ADD48C,0.0340*%
D10*
X014611Y014111D03*
X014611Y022111D03*
X014611Y030111D03*
X024611Y030111D03*
X028311Y034111D03*
X025611Y038861D03*
X024611Y022111D03*
X026111Y015111D03*
X027111Y015111D03*
X024611Y014111D03*
X037111Y012861D03*
X037111Y016861D03*
X038111Y016861D03*
X038111Y007611D03*
D11*
X038111Y006611D03*
X038111Y005611D03*
X038111Y004611D03*
X038111Y009861D03*
X038111Y010861D03*
X038111Y011861D03*
X038111Y012861D03*
X038111Y013861D03*
X038111Y014861D03*
X038111Y015861D03*
X037111Y015861D03*
X037111Y014861D03*
X037111Y013861D03*
X037111Y011861D03*
X037111Y010861D03*
X037111Y009861D03*
X027111Y012111D03*
X027111Y013111D03*
X026111Y013111D03*
X026111Y012111D03*
X024611Y012111D03*
X024611Y013111D03*
X026111Y014111D03*
X027111Y014111D03*
X024611Y015111D03*
X024611Y016111D03*
X024611Y017111D03*
X024611Y018111D03*
X024611Y019111D03*
X024611Y020111D03*
X024611Y021111D03*
X024611Y023111D03*
X024611Y024111D03*
X024611Y025111D03*
X024611Y026111D03*
X024611Y027111D03*
X024611Y028111D03*
X024611Y029111D03*
X029311Y034111D03*
X030311Y034111D03*
X025611Y035861D03*
X025611Y036861D03*
X025611Y037861D03*
X014611Y029111D03*
X014611Y028111D03*
X014611Y027111D03*
X014611Y026111D03*
X014611Y025111D03*
X014611Y024111D03*
X014611Y023111D03*
X014611Y021111D03*
X014611Y020111D03*
X014611Y019111D03*
X014611Y018111D03*
X014611Y017111D03*
X014611Y016111D03*
X014611Y015111D03*
X014611Y013111D03*
X014611Y012111D03*
X014611Y011111D03*
X014611Y010111D03*
X014611Y009111D03*
X014611Y008111D03*
X014611Y007111D03*
X024611Y007111D03*
X024611Y008111D03*
X024611Y009111D03*
X024611Y010111D03*
X024611Y011111D03*
D12*
X029361Y008255D03*
X029361Y007467D03*
X018361Y009967D03*
X018361Y010755D03*
D13*
X031651Y005861D03*
X031651Y005361D03*
X031651Y004861D03*
X031651Y004361D03*
X031651Y003861D03*
X031651Y003361D03*
X031651Y002861D03*
X034071Y002861D03*
X034071Y003361D03*
X034071Y003861D03*
X034071Y004361D03*
X034071Y004861D03*
X034071Y005361D03*
X034071Y005861D03*
D14*
X018611Y003361D03*
X006611Y003361D03*
X003361Y022861D03*
X003361Y035361D03*
X006116Y038336D03*
D15*
X003361Y033361D03*
X003361Y031361D03*
X003361Y029361D03*
X003361Y027361D03*
X003361Y025361D03*
X006116Y022586D03*
X003361Y020861D03*
X003361Y018861D03*
X003361Y016861D03*
X003361Y014861D03*
X003361Y012861D03*
X003361Y010861D03*
X004361Y009361D03*
X003361Y008861D03*
X003361Y006861D03*
X004861Y005611D03*
X003361Y004861D03*
X008611Y003361D03*
X010611Y003361D03*
X012611Y003361D03*
X014611Y003361D03*
X016611Y003361D03*
X020611Y003361D03*
X022611Y003361D03*
X024611Y003361D03*
X026611Y003361D03*
X028611Y003361D03*
X013006Y022586D03*
X013006Y038336D03*
D16*
X022817Y037261D03*
X023605Y037261D03*
X023605Y035111D03*
X022817Y035111D03*
X022817Y032961D03*
X023605Y032961D03*
X031717Y006961D03*
X032505Y006961D03*
X033467Y006961D03*
X034255Y006961D03*
D17*
X035276Y002861D03*
X035946Y002861D03*
X023546Y031961D03*
X022876Y031961D03*
X022876Y034111D03*
X023546Y034111D03*
X023546Y036261D03*
X022876Y036261D03*
D18*
X006761Y019111D03*
X006761Y018111D03*
X006761Y017111D03*
X006761Y014611D03*
X006761Y013611D03*
X006761Y012611D03*
X006761Y010111D03*
X006761Y009111D03*
X006761Y008111D03*
D19*
X009087Y009111D03*
X009087Y009611D03*
X009087Y010111D03*
X009087Y010611D03*
X009087Y012611D03*
X009087Y013111D03*
X009087Y013611D03*
X009087Y014111D03*
X011134Y014111D03*
X011134Y013611D03*
X011134Y013111D03*
X011134Y012611D03*
X011134Y010611D03*
X011134Y010111D03*
X011134Y009611D03*
X011134Y009111D03*
X011134Y017111D03*
X011134Y017611D03*
X011134Y018111D03*
X011134Y018611D03*
X009087Y018611D03*
X009087Y018111D03*
X009087Y017611D03*
X009087Y017111D03*
D20*
X009361Y007111D03*
X010361Y007111D03*
X011361Y007111D03*
X031861Y009361D03*
X032861Y009361D03*
X033861Y009361D03*
D21*
X016611Y030111D03*
D22*
X016611Y029111D03*
X016611Y028111D03*
X016611Y027111D03*
X016611Y026111D03*
X016611Y025111D03*
X016611Y024111D03*
X016611Y023111D03*
X016611Y022111D03*
X016611Y021111D03*
X016611Y020111D03*
X016611Y019111D03*
X016611Y018111D03*
X016611Y017111D03*
X016611Y016111D03*
X016611Y015111D03*
X016611Y014111D03*
X016611Y013111D03*
X016611Y012111D03*
X016611Y011111D03*
X016611Y010111D03*
X016611Y009111D03*
X016611Y008111D03*
X016611Y007111D03*
X022611Y007111D03*
X022611Y008111D03*
X022611Y009111D03*
X022611Y010111D03*
X022611Y011111D03*
X022611Y012111D03*
X022611Y013111D03*
X022611Y014111D03*
X022611Y015111D03*
X022611Y016111D03*
X022611Y017111D03*
X022611Y018111D03*
X022611Y019111D03*
X022611Y020111D03*
X022611Y021111D03*
X022611Y022111D03*
X022611Y023111D03*
X022611Y024111D03*
X022611Y025111D03*
X022611Y026111D03*
X022611Y027111D03*
X022611Y028111D03*
X022611Y029111D03*
X022611Y030111D03*
D23*
X020161Y030526D03*
X020161Y031196D03*
D24*
X025959Y009538D03*
X026215Y009538D03*
X026471Y009538D03*
X026727Y009538D03*
X026983Y009538D03*
X027239Y009538D03*
X027495Y009538D03*
X027751Y009538D03*
X028007Y009538D03*
X028262Y009538D03*
X028262Y006684D03*
X028007Y006684D03*
X027751Y006684D03*
X027495Y006684D03*
X027239Y006684D03*
X026983Y006684D03*
X026727Y006684D03*
X026471Y006684D03*
X026215Y006684D03*
X025959Y006684D03*
D25*
X018361Y013026D03*
X018361Y013696D03*
X018361Y014776D03*
X018361Y015446D03*
D26*
X015361Y035154D03*
X015361Y038068D03*
D27*
X036861Y018111D03*
X038111Y018111D03*
D28*
X018361Y012196D03*
X018361Y011526D03*
D29*
X019287Y010778D03*
X020035Y010778D03*
X019661Y011644D03*
D30*
X039361Y028111D03*
D31*
X038361Y028111D03*
X037361Y028111D03*
X036361Y028111D03*
X035361Y028111D03*
X034361Y028111D03*
X033361Y028111D03*
X032361Y028111D03*
X031361Y028111D03*
X030361Y028111D03*
X029361Y028111D03*
X028361Y028111D03*
X027361Y028111D03*
X026361Y028111D03*
X029661Y030361D03*
X029661Y031361D03*
X029661Y032361D03*
X039361Y025111D03*
X039361Y024111D03*
X039361Y022111D03*
X038361Y022111D03*
X037361Y022111D03*
X036361Y022111D03*
X035361Y022111D03*
X034361Y022111D03*
X033361Y022111D03*
X032361Y022111D03*
X031361Y022111D03*
X030361Y022111D03*
X029361Y022111D03*
X028361Y022111D03*
X027361Y022111D03*
X026361Y022111D03*
X030861Y020111D03*
X030861Y019111D03*
X031861Y020111D03*
X032861Y020111D03*
X033861Y020111D03*
X033861Y019111D03*
X032861Y019111D03*
X034861Y019111D03*
X034861Y020111D03*
D32*
X012861Y030111D02*
X010361Y030111D01*
X009111Y028861D01*
X009111Y028111D01*
X007611Y026611D01*
X003361Y026611D01*
X003361Y027361D01*
X003361Y026611D02*
X003361Y025361D01*
X003361Y029361D02*
X003361Y030361D01*
X004621Y030361D01*
X007381Y030371D01*
X003361Y030361D02*
X003361Y031361D01*
D33*
X007381Y030371D02*
X008711Y030371D01*
X008771Y030311D01*
X009011Y030411D01*
X009791Y031191D01*
X019931Y031191D01*
X020161Y031196D01*
X020391Y031111D01*
X024771Y031111D01*
X024111Y031961D02*
X023546Y031961D01*
X024111Y031961D02*
X024336Y032186D01*
X026511Y034361D01*
X026511Y036561D01*
X026211Y036861D01*
X025611Y036861D01*
X025611Y035861D02*
X025561Y035811D01*
X024311Y035811D01*
X024311Y035461D01*
X023961Y035111D01*
X023911Y035111D01*
X024061Y035111D01*
X024311Y034861D01*
X024311Y033411D01*
X023861Y032961D01*
X023605Y032961D01*
X022876Y034111D02*
X022611Y034111D01*
X020161Y031661D01*
X020161Y031196D01*
X020161Y030526D02*
X020576Y030111D01*
X022611Y030111D01*
X024611Y030111D01*
X024611Y029111D02*
X022611Y029111D01*
X019611Y029111D01*
X019611Y017611D01*
X021111Y016111D01*
X022611Y016111D01*
X024611Y016111D01*
X025111Y016111D01*
X026361Y017361D01*
X034361Y017361D01*
X034861Y016861D01*
X034861Y013861D01*
X034861Y010611D01*
X035611Y009861D01*
X037111Y009861D01*
X034071Y008911D02*
X034071Y008251D01*
X029671Y008251D01*
X029361Y008255D02*
X029361Y008911D01*
X028761Y009511D01*
X028461Y009511D01*
X029361Y007467D02*
X029671Y007411D01*
X029931Y007671D01*
X032071Y007671D01*
X032311Y007431D01*
X032311Y007271D01*
X032505Y006961D01*
X032751Y006971D01*
X033231Y006971D01*
X033467Y006961D01*
X034071Y007271D02*
X034255Y006961D01*
X034071Y007271D02*
X034071Y008251D01*
X034071Y008911D02*
X033861Y009361D01*
X029361Y007467D02*
X029361Y005961D01*
X028411Y005011D01*
X028011Y005011D01*
X025511Y005011D01*
X024611Y004111D01*
X024611Y003361D01*
X024231Y003511D01*
X022471Y005271D01*
X022111Y005611D01*
X019631Y004691D02*
X019631Y003111D01*
X020291Y002451D01*
X018611Y003361D02*
X018611Y005611D01*
X018411Y005611D01*
X018411Y009967D01*
X018361Y009967D01*
X020011Y009967D01*
X020011Y010778D01*
X020035Y010778D01*
X020511Y011254D01*
X020511Y012211D01*
X019711Y013011D01*
X018361Y013011D01*
X018361Y013026D01*
X017211Y014771D02*
X017211Y006871D01*
X012861Y005611D02*
X012651Y005131D01*
X012651Y003731D01*
X012611Y003361D01*
X011111Y006111D02*
X008611Y006111D01*
X008111Y005611D01*
X004861Y005611D01*
X006611Y003361D02*
X006891Y003481D01*
X006851Y003481D01*
X011111Y006111D02*
X011361Y006361D01*
X011361Y007111D01*
X012761Y009711D02*
X012611Y010111D01*
X011134Y010111D01*
X008361Y010111D02*
X007361Y009111D01*
X006761Y009111D01*
X006761Y010111D02*
X006511Y010361D01*
X006411Y010361D01*
X004611Y010361D02*
X004361Y009361D01*
X008011Y008461D02*
X008011Y008211D01*
X008011Y008461D02*
X008161Y008461D01*
X007961Y012711D02*
X008211Y012961D01*
X009087Y013611D02*
X006761Y013611D01*
X006761Y014611D02*
X006661Y014611D01*
X006611Y014811D01*
X005761Y015961D02*
X005511Y016211D01*
X005511Y017711D01*
X006761Y018111D02*
X009087Y018111D01*
X009061Y018811D02*
X008861Y019011D01*
X010111Y018511D02*
X010111Y019761D01*
X010111Y018511D02*
X010511Y018111D01*
X011134Y018111D01*
X012111Y018111D01*
X012361Y017861D01*
X014611Y016111D02*
X016611Y016111D01*
X017811Y015371D02*
X017211Y014771D01*
X017811Y015371D02*
X018071Y015371D01*
X018361Y015446D01*
X012361Y013861D02*
X012261Y013761D01*
X012111Y013611D01*
X011134Y013611D01*
X008961Y014261D02*
X008711Y014511D01*
X008111Y016611D02*
X008111Y017461D01*
X006761Y019111D02*
X005911Y019111D01*
X003361Y025111D02*
X003361Y025361D01*
X012861Y030111D02*
X014611Y030111D01*
X016611Y030111D01*
X018361Y030111D01*
X019361Y029111D01*
X019611Y029111D01*
X021631Y027301D02*
X022451Y028121D01*
X022561Y028111D02*
X022611Y028111D01*
X024611Y028111D01*
X025641Y026601D02*
X025641Y021661D01*
X026141Y021161D01*
X027691Y021161D01*
X030901Y017951D01*
X034831Y017951D01*
X036771Y016011D01*
X037111Y015861D01*
X037111Y013861D02*
X034861Y013861D01*
X024991Y003211D02*
X024611Y003361D01*
X024991Y003211D02*
X026051Y002151D01*
X029521Y002151D01*
X029751Y002271D01*
X030231Y002751D01*
X031271Y002751D01*
X031651Y002861D01*
X021631Y021251D02*
X021631Y027301D01*
X022611Y029111D02*
X022661Y029111D01*
X023605Y035111D02*
X023911Y035111D01*
X024311Y035811D02*
X024311Y036811D01*
X023861Y037261D01*
X023605Y037261D01*
X023611Y037267D01*
X023611Y037361D01*
X023861Y037361D01*
X023861Y038361D01*
X023611Y038611D01*
X021861Y036861D02*
X017011Y036861D01*
X015311Y035161D01*
X015354Y035161D01*
X015361Y035154D01*
X015311Y035411D02*
X015261Y035461D01*
X015261Y038161D01*
X015361Y038068D02*
X015371Y038071D01*
X015111Y038336D01*
X021861Y036861D02*
X022461Y036261D01*
X022876Y036261D01*
D34*
X003361Y004861D02*
X002361Y004861D01*
X002111Y005111D01*
X002111Y008861D01*
X003361Y008861D01*
X002111Y008861D02*
X002111Y012861D01*
X003361Y012861D01*
X002111Y012861D02*
X002111Y016861D01*
X003361Y016861D01*
X002111Y016861D02*
X002111Y020361D01*
X002611Y020861D01*
X003361Y020861D01*
X003861Y020861D01*
X005361Y022611D01*
X005361Y023111D01*
X003361Y025111D01*
X005361Y022611D02*
X006091Y022611D01*
X006116Y022586D01*
X006361Y022511D01*
X006811Y022061D01*
X009611Y022061D01*
X010111Y021561D01*
X010111Y019761D01*
X008861Y019361D02*
X007661Y020561D01*
X005961Y020561D01*
X005911Y019111D02*
X004511Y019111D01*
X004511Y014811D01*
X004511Y010361D01*
X004611Y010361D01*
X006411Y010361D01*
X006111Y011511D02*
X007561Y011511D01*
X007961Y011911D01*
X007961Y012711D01*
X008711Y014511D02*
X008711Y015011D01*
X007461Y015961D02*
X005761Y015961D01*
X006611Y014811D02*
X004511Y014811D01*
X007461Y015961D02*
X008111Y016611D01*
X008861Y019011D02*
X008861Y019361D01*
X012361Y017861D02*
X012361Y013861D01*
X012261Y013761D02*
X012361Y013661D01*
X012361Y013511D01*
X012761Y013111D01*
X012761Y010261D01*
X012611Y010111D01*
X012761Y009711D02*
X012761Y005861D01*
X012421Y006061D01*
X012251Y005711D01*
X011901Y005361D01*
X011121Y004551D01*
X007921Y004551D01*
X006851Y003481D01*
X007611Y006861D02*
X003361Y006861D01*
X007611Y006861D02*
X008011Y007261D01*
X008011Y008211D01*
X012761Y005861D02*
X012861Y005861D01*
X012861Y005611D01*
X018611Y005611D01*
X022111Y005611D01*
X014361Y034111D02*
X012111Y034111D01*
X014361Y034111D02*
X015361Y035111D01*
X015361Y035154D01*
X015111Y038111D02*
X015111Y038336D01*
X013006Y038336D01*
D35*
X023611Y038611D03*
X028111Y016111D03*
X029111Y016111D03*
X030111Y016111D03*
X030111Y015111D03*
X030111Y014111D03*
X029111Y014111D03*
X029111Y015111D03*
X028111Y015111D03*
X028111Y014111D03*
X028111Y013111D03*
X029111Y013111D03*
X030111Y013111D03*
X030111Y012111D03*
X029111Y012111D03*
X028111Y012111D03*
X031111Y012111D03*
X031111Y013111D03*
X032111Y013111D03*
X032111Y012111D03*
X033111Y012111D03*
X033111Y013111D03*
X034111Y013111D03*
X034111Y012111D03*
X034111Y014111D03*
X034111Y015111D03*
X034111Y016111D03*
X033111Y016111D03*
X033111Y015111D03*
X033111Y014111D03*
X032111Y014111D03*
X032111Y015111D03*
X032111Y016111D03*
X031111Y016111D03*
X031111Y015111D03*
X031111Y014111D03*
D36*
X033431Y010051D02*
X033131Y009751D01*
X032861Y009361D01*
X033431Y010051D02*
X034051Y010051D01*
X034651Y009451D01*
X034651Y006571D01*
X034451Y006371D01*
X034451Y005971D01*
X034071Y005861D01*
X034071Y005361D02*
X034451Y005471D01*
X035971Y005471D01*
X038111Y007611D01*
X038111Y006611D02*
X037771Y006471D01*
X036271Y004971D01*
X034451Y004971D01*
X034071Y004861D01*
X034071Y004361D02*
X034451Y004471D01*
X036771Y004471D01*
X037771Y005471D01*
X038111Y005611D01*
X038111Y004611D02*
X037771Y004471D01*
X037271Y003971D01*
X034451Y003971D01*
X034071Y003861D01*
X034071Y002861D02*
X034451Y002871D01*
X035031Y002871D01*
X035276Y002861D01*
X028031Y004471D02*
X026991Y003431D01*
X026611Y003361D01*
X027451Y005571D02*
X027431Y005651D01*
X027451Y005571D02*
X027451Y006391D01*
X027495Y006684D01*
X027751Y006684D02*
X027711Y006971D01*
X027711Y007051D01*
X027171Y007591D01*
X018951Y007591D01*
X019091Y010791D02*
X018671Y010791D01*
X018361Y010755D01*
X018371Y010991D01*
X018371Y011331D01*
X018361Y011526D01*
X018151Y011711D01*
X017751Y012111D01*
X019091Y010791D02*
X019287Y010778D01*
X018361Y013696D02*
X018371Y013951D01*
X018371Y014531D01*
X018361Y014776D01*
X018551Y014881D01*
X018761Y015031D01*
X018841Y015111D01*
X018841Y015871D01*
X018761Y015951D01*
X017261Y015951D01*
X016871Y015561D01*
X016351Y015561D01*
X016061Y015271D01*
X016061Y014431D01*
X016341Y014151D01*
X016611Y014111D01*
X011971Y012591D02*
X011551Y013011D01*
X011134Y013111D01*
X011134Y014111D02*
X011551Y014211D01*
X011551Y014511D01*
X011571Y016511D02*
X011711Y016651D01*
X011711Y017291D01*
X011551Y017451D01*
X011551Y017511D01*
X011134Y017611D01*
X011134Y018611D02*
X011551Y018711D01*
X011551Y020091D01*
X014031Y022571D01*
X014031Y023331D01*
X014471Y023771D01*
X014611Y024111D01*
X022876Y031961D02*
X022861Y032211D01*
X022861Y032661D01*
X022817Y032961D01*
X023546Y034111D02*
X023291Y034391D01*
X023291Y034591D01*
X023071Y034811D01*
X022817Y035111D01*
X023546Y036261D02*
X023291Y036551D01*
X023291Y036731D01*
X023071Y036951D01*
X022817Y037261D01*
X023651Y027491D02*
X023651Y023071D01*
X024611Y022111D01*
X024611Y023111D02*
X024471Y023451D01*
X024131Y023791D01*
X024131Y027531D01*
X036861Y018111D02*
X037151Y017811D01*
X037771Y017191D01*
X038111Y016861D01*
X038591Y016431D02*
X038311Y016151D01*
X038111Y015861D01*
X038591Y016431D02*
X038591Y017391D01*
X038291Y017691D01*
X038111Y018111D01*
X028011Y007761D02*
X028011Y006688D01*
X028007Y006684D01*
X028011Y006679D01*
X027239Y006684D02*
X027211Y006971D01*
X027211Y007031D01*
X027131Y007111D01*
X025291Y007111D01*
X023451Y005271D01*
X022431Y004251D02*
X021731Y004251D01*
X020991Y003511D01*
X020611Y003361D01*
X027011Y005911D02*
X027011Y006391D01*
X026983Y006684D01*
X025959Y009538D02*
X025911Y009538D01*
X011971Y009571D02*
X011551Y009571D01*
X011134Y009611D01*
D37*
X017771Y012771D02*
X017771Y014321D01*
X017771Y012771D02*
X018151Y012391D01*
X018361Y012196D01*
X025911Y009538D02*
X025911Y008411D01*
X031171Y007131D02*
X031471Y007131D01*
X031717Y006961D01*
X031731Y006651D01*
X031731Y005971D01*
X031651Y005861D01*
X032031Y005791D01*
X032251Y005571D01*
X032251Y003871D01*
X033751Y002371D01*
X035611Y002371D01*
X035731Y002491D01*
X035731Y002571D01*
X035946Y002861D01*
X037111Y014861D02*
X036911Y015151D01*
X035791Y016271D01*
X025211Y028111D02*
X025211Y031311D01*
X024336Y032186D01*
X022561Y028111D02*
X022451Y028121D01*
X009061Y018811D02*
X009061Y018611D01*
X009087Y018611D01*
X009087Y017611D02*
X008261Y017611D01*
X008111Y017461D01*
D38*
X008361Y010111D02*
X009087Y010111D01*
X025911Y008411D02*
X026211Y008111D01*
X027661Y008111D01*
X028011Y007761D01*
X028661Y007961D02*
X028661Y007082D01*
X028661Y007961D02*
X028911Y008211D01*
X029361Y008211D01*
X029361Y008255D01*
X029671Y008251D01*
D39*
X028661Y007082D02*
X028262Y006684D01*
X028011Y006679D02*
X028011Y005011D01*
D40*
X037361Y022111D02*
X037361Y025361D01*
X035611Y027111D01*
X026461Y027111D01*
X025461Y028111D01*
X025211Y028111D01*
X024611Y028111D01*
D41*
X024131Y027531D03*
X023651Y027491D03*
X025641Y026601D03*
X026131Y025791D03*
X026851Y026511D03*
X027891Y027551D03*
X030791Y023591D03*
X031791Y024171D03*
X033851Y026651D03*
X034271Y026651D03*
X038871Y024751D03*
X036151Y017351D03*
X035791Y016271D03*
X035371Y015671D03*
X036351Y014371D03*
X036211Y012391D03*
X031171Y007131D03*
X029871Y006671D03*
X029091Y004971D03*
X030131Y004671D03*
X030651Y004571D03*
X028031Y004471D03*
X027431Y005651D03*
X027011Y005911D03*
X025611Y006811D03*
X025591Y007891D03*
X025461Y008511D03*
X026401Y008511D03*
X027451Y008691D03*
X027571Y007631D03*
X028811Y008751D03*
X029091Y011611D03*
X026771Y011591D03*
X025611Y010011D03*
X022271Y008491D03*
X021731Y008911D03*
X021431Y008611D03*
X021111Y008331D03*
X020811Y007891D03*
X021731Y007291D03*
X023451Y005271D03*
X024271Y005411D03*
X024451Y005831D03*
X022431Y004251D03*
X020991Y004851D03*
X018951Y007591D03*
X017751Y012111D03*
X017771Y014321D03*
X021431Y015611D03*
X023651Y014511D03*
X026331Y016611D03*
X027951Y018791D03*
X029291Y017871D03*
X029131Y016611D03*
X028471Y014791D03*
X021631Y021251D03*
X019111Y024151D03*
X011571Y016511D03*
X011551Y014511D03*
X011971Y012591D03*
X011971Y009571D03*
X029911Y001771D03*
D42*
X025331Y001771D01*
X022251Y004851D01*
X020991Y004851D01*
X022731Y005571D02*
X022731Y006291D01*
X021731Y007291D01*
X021131Y007891D02*
X020811Y007891D01*
X021131Y007891D02*
X022231Y008991D01*
X022231Y012611D01*
X022491Y012871D01*
X022611Y013111D01*
X022691Y013731D02*
X022871Y013731D01*
X023651Y014511D01*
X024611Y015111D02*
X024951Y015251D01*
X025291Y015591D01*
X032151Y015591D01*
X032471Y015271D01*
X032471Y012231D01*
X035311Y009391D01*
X037331Y009391D01*
X037591Y009651D01*
X037591Y011031D01*
X037951Y011391D01*
X037951Y011531D01*
X038111Y011861D01*
X037531Y012391D02*
X037591Y012451D01*
X037591Y013031D01*
X037951Y013391D01*
X037951Y013531D01*
X038111Y013861D01*
X037631Y013691D02*
X037451Y013511D01*
X037451Y013191D01*
X037111Y012861D01*
X037531Y012391D02*
X036211Y012391D01*
X037631Y013691D02*
X037631Y015071D01*
X037931Y015371D01*
X038311Y015371D01*
X038771Y015831D01*
X038771Y018231D01*
X037931Y019071D01*
X036791Y019071D01*
X033791Y022071D01*
X033791Y022291D01*
X033551Y022531D01*
X031951Y022531D01*
X031651Y022231D01*
X031361Y022111D01*
X032361Y022111D02*
X032631Y021971D01*
X034291Y020311D01*
X034291Y019071D01*
X036011Y017351D01*
X036151Y017351D01*
X035371Y015671D02*
X036351Y014691D01*
X036351Y014371D01*
X038111Y010861D02*
X038251Y010551D01*
X038271Y010531D01*
X038271Y010391D01*
X038591Y010071D01*
X038591Y009651D01*
X038171Y009231D01*
X035131Y009231D01*
X032751Y011611D01*
X029091Y011611D01*
X028471Y011951D02*
X028471Y014791D01*
X027591Y014311D02*
X027271Y014631D01*
X026591Y014631D01*
X026111Y015111D01*
X027591Y014311D02*
X027591Y011911D01*
X026991Y011311D01*
X026991Y009831D01*
X026983Y009538D01*
X027239Y009538D02*
X027191Y009251D01*
X027191Y009171D01*
X026531Y008511D01*
X026401Y008511D01*
X025611Y008511D02*
X025461Y008511D01*
X025611Y008511D02*
X025611Y010011D01*
X025431Y010251D02*
X025431Y013111D01*
X025911Y013591D01*
X026431Y013591D01*
X026771Y013251D01*
X027111Y013111D01*
X026591Y012431D02*
X026251Y012771D01*
X026111Y013111D01*
X026591Y012431D02*
X026591Y011911D01*
X026471Y011791D01*
X026471Y009831D01*
X026471Y009538D01*
X026215Y009538D02*
X026231Y009831D01*
X026231Y011771D01*
X026111Y012111D01*
X026771Y011591D02*
X026771Y009831D01*
X026727Y009538D01*
X027495Y009538D02*
X027451Y009251D01*
X027451Y008691D01*
X028051Y009171D02*
X028471Y008751D01*
X028811Y008751D01*
X028051Y009171D02*
X028051Y009251D01*
X028007Y009538D01*
X027751Y009538D02*
X027791Y009831D01*
X027791Y011271D01*
X028471Y011951D01*
X025431Y010251D02*
X024811Y009631D01*
X024451Y009631D01*
X023311Y008491D01*
X022271Y008491D01*
X021731Y008911D02*
X021731Y012771D01*
X022691Y013731D01*
X021431Y015611D02*
X021431Y008611D01*
X021111Y008331D02*
X021111Y015571D01*
X019111Y017571D01*
X019111Y024151D01*
X020261Y020731D02*
X023551Y020731D01*
X024451Y021631D01*
X025011Y021631D01*
X025251Y021871D01*
X025251Y026771D01*
X025451Y026971D01*
X025951Y026971D01*
X026151Y026771D01*
X026851Y026511D02*
X026131Y025791D01*
X027891Y027551D02*
X030411Y027551D01*
X030851Y027991D01*
X031071Y027991D01*
X031361Y028111D01*
X032551Y028531D02*
X027951Y028531D01*
X027651Y028231D01*
X027361Y028111D01*
X029661Y030361D02*
X029771Y030651D01*
X029771Y030851D01*
X030171Y031251D01*
X030171Y033771D01*
X030311Y034111D01*
X029551Y032651D02*
X029661Y032361D01*
X029551Y032651D02*
X028431Y033771D01*
X028311Y034111D01*
X032551Y028531D02*
X032791Y028291D01*
X032791Y028071D01*
X033171Y027691D01*
X035751Y027691D01*
X038691Y024751D01*
X038871Y024751D01*
X034691Y026651D02*
X032991Y024951D01*
X031791Y024171D02*
X034271Y026651D01*
X033851Y026651D02*
X030791Y023591D01*
X027951Y018791D02*
X026771Y018791D01*
X024771Y020791D01*
X024611Y021111D01*
X025571Y017871D02*
X024951Y017251D01*
X024611Y017111D01*
X025571Y017871D02*
X029291Y017871D01*
X029131Y016611D02*
X026331Y016611D01*
X025591Y007891D02*
X025611Y007811D01*
X025631Y007791D01*
X027231Y007791D01*
X027391Y007631D01*
X027571Y007631D01*
X026727Y006684D02*
X026671Y006391D01*
X026671Y005931D01*
X026131Y005391D01*
X024671Y005391D01*
X024251Y004971D01*
X023331Y004971D01*
X022731Y005571D01*
X024271Y005411D02*
X024451Y005411D01*
X024591Y005551D01*
X026031Y005551D01*
X026431Y005951D01*
X026431Y006391D01*
X026471Y006684D01*
X026215Y006684D02*
X026251Y006391D01*
X026251Y006011D01*
X026071Y005831D01*
X024451Y005831D01*
X025611Y006811D02*
X025891Y006811D01*
X025959Y006684D01*
X029091Y004971D02*
X031271Y004971D01*
X031651Y004861D01*
X031651Y005361D02*
X031271Y005471D01*
X031071Y005471D01*
X029871Y006671D01*
X030131Y004671D02*
X030831Y003971D01*
X031271Y003971D01*
X031651Y003861D01*
X031651Y004361D02*
X031271Y004471D01*
X030751Y004471D01*
X030651Y004571D01*
D43*
X020291Y002451D03*
X019631Y004691D03*
X017211Y006871D03*
X008771Y030311D03*
X024771Y031111D03*
D44*
X028262Y009538D02*
X028262Y009512D01*
X028261Y009511D01*
X028461Y009511D01*
D45*
X008711Y015011D03*
X005511Y017711D03*
X005961Y020561D03*
X006111Y011511D03*
X012111Y034111D03*
D46*
X006111Y034611D02*
X006111Y038341D01*
X006116Y038336D01*
X006111Y038341D02*
X006111Y038361D01*
X006111Y034611D02*
X004861Y033361D01*
X003361Y033361D01*
D47*
X008961Y014261D02*
X008961Y014237D01*
X009087Y014111D01*
X009087Y013111D02*
X008361Y013111D01*
X008211Y012961D01*
X008611Y009611D02*
X009087Y009611D01*
X008611Y009611D02*
X008111Y009111D01*
X008061Y008611D01*
X008161Y008461D01*
D48*
X020261Y020731D03*
X026151Y026771D03*
X032991Y024951D03*
X034691Y026651D03*
M02*
