G75*
G70*
%OFA0B0*%
%FSLAX24Y24*%
%IPPOS*%
%LPD*%
%AMOC8*
5,1,8,0,0,1.08239X$1,22.5*
%
%ADD10R,0.0700X0.0700*%
%ADD11OC8,0.0700*%
%ADD12R,0.0768X0.0768*%
%ADD13C,0.0768*%
%ADD14O,0.1120X0.0560*%
%ADD15O,0.0560X0.1120*%
%ADD16R,0.0515X0.0515*%
%ADD17C,0.0515*%
%ADD18OC8,0.0850*%
%ADD19R,0.0594X0.0594*%
%ADD20C,0.0594*%
%ADD21C,0.0500*%
%ADD22C,0.0475*%
%ADD23C,0.0200*%
%ADD24C,0.0310*%
%ADD25C,0.0080*%
%ADD26C,0.1000*%
%ADD27C,0.0400*%
%ADD28C,0.0100*%
%ADD29C,0.0531*%
%ADD30C,0.0340*%
%ADD31C,0.0600*%
D10*
X014611Y014111D03*
X014611Y022111D03*
X014611Y030111D03*
X024611Y030111D03*
X028311Y034111D03*
X025611Y038861D03*
X024611Y022111D03*
X026111Y015111D03*
X027111Y015111D03*
X024611Y014111D03*
X037111Y012861D03*
X037111Y016861D03*
X038111Y016861D03*
X038111Y007611D03*
D11*
X038111Y006611D03*
X038111Y005611D03*
X038111Y004611D03*
X038111Y009861D03*
X038111Y010861D03*
X038111Y011861D03*
X038111Y012861D03*
X038111Y013861D03*
X038111Y014861D03*
X038111Y015861D03*
X037111Y015861D03*
X037111Y014861D03*
X037111Y013861D03*
X037111Y011861D03*
X037111Y010861D03*
X037111Y009861D03*
X027111Y012111D03*
X027111Y013111D03*
X026111Y013111D03*
X026111Y012111D03*
X024611Y012111D03*
X024611Y013111D03*
X026111Y014111D03*
X027111Y014111D03*
X024611Y015111D03*
X024611Y016111D03*
X024611Y017111D03*
X024611Y018111D03*
X024611Y019111D03*
X024611Y020111D03*
X024611Y021111D03*
X024611Y023111D03*
X024611Y024111D03*
X024611Y025111D03*
X024611Y026111D03*
X024611Y027111D03*
X024611Y028111D03*
X024611Y029111D03*
X029311Y034111D03*
X030311Y034111D03*
X025611Y035861D03*
X025611Y036861D03*
X025611Y037861D03*
X014611Y029111D03*
X014611Y028111D03*
X014611Y027111D03*
X014611Y026111D03*
X014611Y025111D03*
X014611Y024111D03*
X014611Y023111D03*
X014611Y021111D03*
X014611Y020111D03*
X014611Y019111D03*
X014611Y018111D03*
X014611Y017111D03*
X014611Y016111D03*
X014611Y015111D03*
X014611Y013111D03*
X014611Y012111D03*
X014611Y011111D03*
X014611Y010111D03*
X014611Y009111D03*
X014611Y008111D03*
X014611Y007111D03*
X024611Y007111D03*
X024611Y008111D03*
X024611Y009111D03*
X024611Y010111D03*
X024611Y011111D03*
D12*
X018611Y003361D03*
X006611Y003361D03*
X003361Y022861D03*
X003361Y035361D03*
X006116Y038336D03*
D13*
X003361Y004861D03*
X004861Y005611D03*
X003361Y006861D03*
X003361Y008861D03*
X004361Y009361D03*
X003361Y010861D03*
X003361Y012861D03*
X003361Y014861D03*
X003361Y016861D03*
X003361Y018861D03*
X003361Y020861D03*
X006116Y022586D03*
X003361Y025361D03*
X003361Y027361D03*
X003361Y029361D03*
X003361Y031361D03*
X003361Y033361D03*
X013006Y038336D03*
X013006Y022586D03*
X012611Y003361D03*
X014611Y003361D03*
X016611Y003361D03*
X020611Y003361D03*
X022611Y003361D03*
X024611Y003361D03*
X026611Y003361D03*
X028611Y003361D03*
X010611Y003361D03*
X008611Y003361D03*
D14*
X006761Y008111D03*
X006761Y009111D03*
X006761Y010111D03*
X006761Y012611D03*
X006761Y013611D03*
X006761Y014611D03*
X006761Y017111D03*
X006761Y018111D03*
X006761Y019111D03*
D15*
X009361Y007111D03*
X010361Y007111D03*
X011361Y007111D03*
X031861Y009361D03*
X032861Y009361D03*
X033861Y009361D03*
D16*
X016611Y030111D03*
D17*
X016611Y029111D03*
X016611Y028111D03*
X016611Y027111D03*
X016611Y026111D03*
X016611Y025111D03*
X016611Y024111D03*
X016611Y023111D03*
X016611Y022111D03*
X016611Y021111D03*
X016611Y020111D03*
X016611Y019111D03*
X016611Y018111D03*
X016611Y017111D03*
X016611Y016111D03*
X016611Y015111D03*
X016611Y014111D03*
X016611Y013111D03*
X016611Y012111D03*
X016611Y011111D03*
X016611Y010111D03*
X016611Y009111D03*
X016611Y008111D03*
X016611Y007111D03*
X022611Y007111D03*
X022611Y008111D03*
X022611Y009111D03*
X022611Y010111D03*
X022611Y011111D03*
X022611Y012111D03*
X022611Y013111D03*
X022611Y014111D03*
X022611Y015111D03*
X022611Y016111D03*
X022611Y017111D03*
X022611Y018111D03*
X022611Y019111D03*
X022611Y020111D03*
X022611Y021111D03*
X022611Y022111D03*
X022611Y023111D03*
X022611Y024111D03*
X022611Y025111D03*
X022611Y026111D03*
X022611Y027111D03*
X022611Y028111D03*
X022611Y029111D03*
X022611Y030111D03*
D18*
X036861Y018111D03*
X038111Y018111D03*
D19*
X039361Y028111D03*
D20*
X038361Y028111D03*
X037361Y028111D03*
X036361Y028111D03*
X035361Y028111D03*
X034361Y028111D03*
X033361Y028111D03*
X032361Y028111D03*
X031361Y028111D03*
X030361Y028111D03*
X029361Y028111D03*
X028361Y028111D03*
X027361Y028111D03*
X026361Y028111D03*
X029661Y030361D03*
X029661Y031361D03*
X029661Y032361D03*
X039361Y025111D03*
X039361Y024111D03*
X039361Y022111D03*
X038361Y022111D03*
X037361Y022111D03*
X036361Y022111D03*
X035361Y022111D03*
X034361Y022111D03*
X033361Y022111D03*
X032361Y022111D03*
X031361Y022111D03*
X030361Y022111D03*
X029361Y022111D03*
X028361Y022111D03*
X027361Y022111D03*
X026361Y022111D03*
X030861Y020111D03*
X030861Y019111D03*
X031861Y020111D03*
X032861Y020111D03*
X033861Y020111D03*
X033861Y019111D03*
X032861Y019111D03*
X034861Y019111D03*
X034861Y020111D03*
D21*
X037111Y016861D02*
X036771Y016531D01*
X035931Y015691D01*
X035931Y015511D01*
X034691Y014271D01*
X034691Y011871D01*
X033091Y010271D01*
X030131Y010271D01*
X029491Y009631D01*
X029491Y007771D01*
X031211Y006051D01*
X031211Y004411D01*
X029251Y002451D01*
X020291Y002451D01*
X021491Y003511D02*
X020911Y004091D01*
X017571Y004091D01*
X016991Y003511D01*
X016611Y003361D01*
X016231Y003511D02*
X016091Y003511D01*
X016771Y006431D02*
X011911Y006431D01*
X011631Y006711D01*
X011361Y007111D01*
X009411Y007061D02*
X009401Y007061D01*
X007651Y008811D01*
X007651Y012611D01*
X004361Y009361D02*
X004361Y006111D01*
X004861Y005611D01*
X006511Y007911D02*
X006931Y007651D01*
X006561Y007911D02*
X006761Y008111D01*
X007191Y008351D01*
X007651Y008811D01*
X006561Y007911D02*
X006511Y007911D01*
X009361Y007111D02*
X009411Y007061D01*
X010361Y004855D02*
X010491Y004571D01*
X010491Y004491D01*
X016771Y006431D02*
X017181Y006841D01*
X017361Y006761D01*
X017561Y006761D01*
X019631Y004691D01*
X021491Y003511D02*
X022231Y003511D01*
X022611Y003361D01*
X022991Y003511D01*
X023731Y003511D01*
X024311Y004091D01*
X027651Y004091D01*
X028231Y003511D01*
X028611Y003361D01*
X033861Y009361D02*
X033971Y009911D01*
X035271Y011211D01*
X035271Y014011D01*
X036871Y015611D01*
X037111Y015861D01*
X038361Y022111D02*
X038361Y025861D01*
X039361Y026861D01*
X039361Y028111D01*
X039361Y034611D01*
X038161Y035811D01*
X025611Y035811D01*
X025611Y035861D01*
X023611Y038111D02*
X023611Y038611D01*
X023611Y038111D02*
X022361Y036861D01*
X016861Y036861D01*
X016611Y036611D01*
X016611Y030111D01*
X010671Y023071D02*
X010886Y022586D01*
X010671Y023071D02*
X008771Y024971D01*
X008771Y030311D01*
X007211Y019361D02*
X006961Y019111D01*
X006761Y019111D01*
X006771Y017111D02*
X006771Y017011D01*
X006771Y017111D02*
X006761Y017111D01*
X016611Y016111D02*
X016731Y016351D01*
X021631Y021251D01*
X025641Y026601D02*
X025641Y030411D01*
X025111Y030941D01*
X024941Y031041D01*
X024771Y031111D01*
X017211Y006871D02*
X017181Y006841D01*
D22*
X028111Y012111D03*
X028111Y013111D03*
X029111Y013111D03*
X030111Y013111D03*
X030111Y012111D03*
X029111Y012111D03*
X029111Y014111D03*
X029111Y015111D03*
X029111Y016111D03*
X030111Y016111D03*
X030111Y015111D03*
X030111Y014111D03*
X031111Y014111D03*
X031111Y015111D03*
X031111Y016111D03*
X032111Y016111D03*
X032111Y015111D03*
X032111Y014111D03*
X033111Y014111D03*
X033111Y015111D03*
X033111Y016111D03*
X034111Y016111D03*
X034111Y015111D03*
X034111Y014111D03*
X034111Y013111D03*
X034111Y012111D03*
X033111Y012111D03*
X033111Y013111D03*
X032111Y013111D03*
X032111Y012111D03*
X031111Y012111D03*
X031111Y013111D03*
X028111Y014111D03*
X028111Y015111D03*
X028111Y016111D03*
X023611Y038611D03*
D23*
X016611Y029111D02*
X014611Y029111D01*
X014611Y028111D02*
X016611Y028111D01*
X016611Y027111D02*
X016611Y027061D01*
X014661Y027061D01*
X014611Y027111D01*
X014611Y026111D02*
X016611Y026111D01*
X016561Y025161D02*
X014611Y025161D01*
X014611Y025111D01*
X014611Y024111D02*
X016611Y024111D01*
X016611Y025111D02*
X016561Y025161D01*
X016611Y023111D02*
X014611Y023111D01*
X014611Y022111D02*
X016611Y022111D01*
X016611Y021111D02*
X014611Y021111D01*
X014611Y020111D02*
X016611Y020111D01*
X016611Y019111D02*
X014611Y019111D01*
X014611Y018111D02*
X016611Y018111D01*
X016611Y017111D02*
X014611Y017111D01*
X014611Y015111D02*
X016611Y015111D01*
X016731Y015871D02*
X016611Y016111D01*
X016731Y015871D02*
X017771Y014831D01*
X017771Y014321D01*
X016611Y014111D02*
X014611Y014111D01*
X014611Y013111D02*
X016611Y013111D01*
X016611Y012111D02*
X014611Y012111D01*
X014611Y011111D02*
X016611Y011111D01*
X016611Y010111D02*
X014611Y010111D01*
X014611Y009111D02*
X016611Y009111D01*
X016611Y008111D02*
X014611Y008111D01*
X014611Y007111D02*
X016611Y007111D01*
X022611Y007111D02*
X024611Y007111D01*
X024611Y008111D02*
X022611Y008111D01*
X022611Y009111D02*
X024611Y009111D01*
X024611Y010111D02*
X022611Y010111D01*
X022611Y011111D02*
X022611Y011161D01*
X024561Y011161D01*
X024611Y011111D01*
X024611Y012111D02*
X022611Y012111D01*
X022611Y013111D02*
X024611Y013111D01*
X024611Y014111D02*
X024561Y014161D01*
X022611Y014161D01*
X022611Y014111D01*
X022611Y015111D02*
X024611Y015111D01*
X024611Y017111D02*
X022611Y017111D01*
X022611Y018111D02*
X024611Y018111D01*
X024611Y019111D02*
X022611Y019111D01*
X022611Y020111D02*
X024611Y020111D01*
X024611Y021111D02*
X022611Y021111D01*
X022611Y022111D02*
X024611Y022111D01*
X024611Y023111D02*
X022611Y023111D01*
X022611Y024111D02*
X024611Y024111D01*
X024611Y025111D02*
X022611Y025111D01*
X022611Y026111D02*
X024611Y026111D01*
X024611Y027111D02*
X022611Y027111D01*
X035791Y020391D02*
X035791Y016271D01*
X037111Y014861D02*
X036951Y014531D01*
X036951Y014471D01*
X036571Y014091D01*
X036571Y010711D01*
X036211Y010711D01*
X034111Y008611D01*
X032651Y008611D01*
X031171Y007131D01*
X032651Y008611D02*
X032291Y008971D01*
X032131Y008971D01*
X031861Y009361D01*
X036571Y010711D02*
X036771Y010711D01*
X037111Y010861D01*
X035791Y020391D02*
X037231Y021831D01*
X037361Y022111D01*
D24*
X038871Y024751D03*
X034271Y026651D03*
X033851Y026651D03*
X031791Y024171D03*
X030791Y023591D03*
X026851Y026511D03*
X026131Y025791D03*
X025641Y026601D03*
X024131Y027531D03*
X023651Y027491D03*
X027891Y027551D03*
X021631Y021251D03*
X019111Y024151D03*
X026331Y016611D03*
X027951Y018791D03*
X029291Y017871D03*
X029131Y016611D03*
X028471Y014791D03*
X029091Y011611D03*
X026771Y011591D03*
X025611Y010011D03*
X025461Y008511D03*
X025591Y007891D03*
X026401Y008511D03*
X027451Y008691D03*
X027571Y007631D03*
X028811Y008751D03*
X029871Y006671D03*
X031171Y007131D03*
X029091Y004971D03*
X030131Y004671D03*
X030651Y004571D03*
X028031Y004471D03*
X027431Y005651D03*
X027011Y005911D03*
X025611Y006811D03*
X024451Y005831D03*
X024271Y005411D03*
X023451Y005271D03*
X022431Y004251D03*
X020991Y004851D03*
X021731Y007291D03*
X020811Y007891D03*
X021111Y008331D03*
X021431Y008611D03*
X021731Y008911D03*
X022271Y008491D03*
X018951Y007591D03*
X017751Y012111D03*
X017771Y014321D03*
X021431Y015611D03*
X023651Y014511D03*
X035371Y015671D03*
X035791Y016271D03*
X036151Y017351D03*
X036351Y014371D03*
X036211Y012391D03*
X029911Y001771D03*
X011971Y009571D03*
X011971Y012591D03*
X011551Y014511D03*
X011571Y016511D03*
D25*
X014131Y017911D02*
X014131Y018311D01*
X014451Y018631D01*
X017011Y018631D01*
X021011Y022631D01*
X024891Y022631D01*
X024951Y022691D01*
X031391Y022691D01*
X031931Y022151D01*
X031931Y021931D01*
X032171Y021691D01*
X036551Y021691D01*
X036931Y022071D01*
X036931Y023111D01*
X036951Y023131D01*
X033111Y026971D01*
X028891Y026971D01*
X027931Y027931D01*
X027931Y028151D01*
X027551Y028531D01*
X027171Y028531D01*
X026871Y028231D01*
X026651Y028231D01*
X026361Y028111D01*
X027231Y027851D02*
X027361Y028111D01*
X027231Y027851D02*
X026151Y026771D01*
X026851Y026511D02*
X027891Y027551D01*
X028361Y028111D02*
X028651Y027991D01*
X028871Y027991D01*
X029731Y027131D01*
X033371Y027131D01*
X033851Y026651D01*
X034271Y026651D02*
X033631Y027291D01*
X031571Y027291D01*
X030871Y027991D01*
X030651Y027991D01*
X030361Y028111D01*
X032361Y028111D02*
X032651Y027991D01*
X032871Y027991D01*
X033411Y027451D01*
X033891Y027451D01*
X034691Y026651D01*
X032991Y024951D02*
X032371Y024951D01*
X031251Y026071D01*
X025331Y026071D01*
X024811Y026591D01*
X020211Y026591D01*
X016851Y023231D01*
X016611Y023111D01*
X016851Y022231D02*
X016611Y022111D01*
X016851Y022231D02*
X017611Y022231D01*
X020971Y025591D01*
X024771Y025591D01*
X024971Y025791D01*
X026131Y025791D01*
X025451Y026231D02*
X024831Y026851D01*
X024611Y027111D01*
X025451Y026231D02*
X032151Y026231D01*
X036111Y022271D01*
X036361Y022111D01*
X036951Y023131D02*
X037791Y022291D01*
X037791Y020631D01*
X037351Y020191D01*
X037351Y018411D01*
X037551Y018211D01*
X037551Y017891D01*
X038091Y017351D01*
X038511Y017351D01*
X038591Y017271D01*
X038591Y015511D01*
X038271Y015191D01*
X038111Y014861D01*
X039611Y014671D02*
X038271Y013331D01*
X038271Y013191D01*
X038111Y012861D01*
X037591Y012431D02*
X037311Y012151D01*
X037111Y011861D01*
X037591Y012431D02*
X037591Y017271D01*
X037511Y017351D01*
X036151Y017351D01*
X035371Y015671D02*
X035071Y015671D01*
X032871Y017871D01*
X029291Y017871D01*
X029131Y016611D02*
X029471Y016271D01*
X029471Y011571D01*
X028511Y010611D01*
X028511Y008211D01*
X029871Y006851D01*
X029871Y006671D01*
X030131Y005071D02*
X027571Y007631D01*
X026401Y008511D02*
X025461Y008511D01*
X024991Y008811D02*
X024811Y008631D01*
X022551Y008631D01*
X022231Y008951D01*
X022231Y009271D01*
X022591Y009631D01*
X024811Y009631D01*
X025091Y009911D01*
X025091Y010311D01*
X024811Y010591D01*
X022231Y010591D01*
X021871Y010231D01*
X016851Y010231D01*
X016611Y010111D01*
X020011Y011631D02*
X016751Y014891D01*
X016611Y015111D01*
X014611Y017111D02*
X014471Y017451D01*
X014471Y017571D01*
X014131Y017911D01*
X016611Y018111D02*
X016851Y018231D01*
X017761Y018231D01*
X020261Y020731D01*
X021431Y018811D02*
X022491Y019871D01*
X022611Y020111D01*
X022551Y019591D02*
X022231Y019271D01*
X022231Y017611D01*
X022491Y017351D01*
X022611Y017111D01*
X023651Y016611D02*
X022531Y015491D01*
X022451Y015491D01*
X022231Y015271D01*
X022231Y012611D01*
X022491Y012351D01*
X022611Y012111D01*
X024771Y011631D02*
X020011Y011631D01*
X021731Y008911D02*
X021731Y007291D01*
X021431Y007171D02*
X021431Y008611D01*
X021111Y008331D02*
X021111Y005151D01*
X022311Y003951D01*
X022551Y003951D01*
X023071Y004471D01*
X024471Y004471D01*
X026211Y006211D01*
X027291Y006211D01*
X028531Y004971D01*
X029091Y004971D01*
X029391Y004991D02*
X029391Y005091D01*
X028111Y006371D01*
X026131Y006371D01*
X024871Y005111D01*
X024031Y005111D01*
X023471Y005671D01*
X022931Y005671D01*
X021431Y007171D01*
X022231Y006951D02*
X022231Y008451D01*
X022271Y008491D01*
X022231Y006951D02*
X023351Y005831D01*
X024451Y005831D01*
X024271Y005411D02*
X024931Y005411D01*
X028211Y008691D01*
X028211Y011491D01*
X027591Y012111D01*
X027591Y013431D01*
X027251Y013771D01*
X027111Y014111D01*
X026591Y013431D02*
X026251Y013771D01*
X026111Y014111D01*
X026591Y013431D02*
X026591Y011951D01*
X026771Y011771D01*
X026771Y011591D01*
X027251Y011771D02*
X027111Y012111D01*
X027251Y011771D02*
X028051Y010971D01*
X028051Y008771D01*
X026091Y006811D01*
X025611Y006811D01*
X024951Y007251D02*
X024611Y007111D01*
X024951Y007251D02*
X025591Y007891D01*
X024991Y008811D02*
X026521Y008811D01*
X026641Y008691D01*
X027451Y008691D01*
X028811Y008751D02*
X028811Y009911D01*
X030471Y011571D01*
X030471Y016271D01*
X027951Y018791D01*
X026731Y020871D02*
X026571Y020871D01*
X024951Y019251D01*
X024611Y019111D01*
X024771Y019591D02*
X022551Y019591D01*
X021431Y018811D02*
X021431Y015611D01*
X023651Y016611D02*
X026331Y016611D01*
X026631Y015591D02*
X025711Y015591D01*
X025631Y015511D01*
X025631Y015451D01*
X024811Y014631D01*
X024251Y014631D01*
X024131Y014511D01*
X023651Y014511D01*
X024611Y014111D02*
X025091Y014591D01*
X028151Y014591D01*
X028471Y014271D01*
X028471Y012231D01*
X029091Y011611D01*
X028471Y014791D02*
X028471Y015271D01*
X027991Y015751D01*
X027591Y015751D01*
X025371Y017971D01*
X024951Y017971D01*
X024611Y018111D01*
X024771Y019591D02*
X026231Y021051D01*
X026231Y021831D01*
X026361Y022111D01*
X026731Y020871D02*
X027851Y021991D01*
X028071Y021991D01*
X028361Y022111D01*
X030551Y022531D02*
X025031Y022531D01*
X024611Y022111D01*
X024951Y022971D02*
X024611Y023111D01*
X024951Y022971D02*
X031371Y022971D01*
X032091Y022251D01*
X032361Y022111D01*
X032851Y022231D02*
X031111Y023971D01*
X024951Y023971D01*
X024611Y024111D01*
X024811Y024591D02*
X020211Y024591D01*
X016851Y021231D01*
X016611Y021111D01*
X016851Y019231D02*
X016611Y019111D01*
X016851Y019231D02*
X021211Y023591D01*
X030791Y023591D01*
X031791Y024171D02*
X025231Y024171D01*
X024811Y024591D01*
X024951Y024971D02*
X024611Y025111D01*
X024951Y024971D02*
X031411Y024971D01*
X034111Y022271D01*
X034361Y022111D01*
X033361Y022111D02*
X033071Y022231D01*
X032851Y022231D01*
X031361Y022111D02*
X031071Y022231D01*
X030851Y022231D01*
X030551Y022531D01*
X026631Y015591D02*
X027111Y015111D01*
X024771Y011631D02*
X025611Y010791D01*
X025611Y010011D01*
X020811Y007891D02*
X020811Y005211D01*
X020991Y005031D01*
X020991Y004851D01*
X029391Y004991D02*
X030011Y004371D01*
X030251Y004371D01*
X030451Y004571D01*
X030651Y004571D01*
X030131Y004671D02*
X030131Y005071D01*
X029911Y001771D02*
X037811Y009671D01*
X038111Y009861D01*
X036211Y012391D02*
X036211Y014231D01*
X036351Y014371D01*
X039611Y014671D02*
X039611Y021251D01*
X038871Y021991D01*
X038871Y024751D01*
X029661Y031361D02*
X029551Y031651D01*
X029551Y031851D01*
X029231Y032171D01*
X029231Y033771D01*
X029311Y034111D01*
X022611Y026111D02*
X022371Y025991D01*
X021131Y025991D01*
X019291Y024151D01*
X019111Y024151D01*
D26*
X013006Y022586D02*
X010886Y022586D01*
X009961Y021661D01*
X009961Y017061D01*
X009961Y012611D01*
X007651Y012611D01*
X006761Y012611D01*
X006111Y011511D02*
X004161Y011511D01*
X003511Y010861D01*
X003361Y010861D01*
X003361Y014861D02*
X004111Y014861D01*
X005361Y015861D01*
X007861Y015861D01*
X008711Y015011D01*
X009711Y017011D02*
X006771Y017011D01*
X006761Y017011D01*
X005511Y017711D02*
X004811Y018661D01*
X003361Y018661D01*
X003361Y018861D01*
X005611Y020561D02*
X003861Y022311D01*
X003361Y022311D01*
X003361Y022861D01*
X005611Y020561D02*
X005961Y020561D01*
X007211Y019361D02*
X007911Y020061D01*
X007911Y033911D01*
X011911Y033911D01*
X012111Y034111D01*
X007911Y033911D02*
X006461Y035361D01*
X003361Y035361D01*
X006461Y035361D02*
X006611Y035361D01*
X009961Y017061D02*
X009711Y017011D01*
X010491Y004491D02*
X015111Y004491D01*
X016091Y003511D01*
X016231Y003511D02*
X016611Y003361D01*
X010611Y003361D02*
X010491Y003731D01*
X010491Y004491D01*
D27*
X017211Y006871D03*
X019631Y004691D03*
X020291Y002451D03*
X008771Y030311D03*
X024771Y031111D03*
D28*
X024131Y027531D02*
X024131Y036191D01*
X025451Y037511D01*
X025451Y037531D01*
X025611Y037861D01*
X025271Y038431D02*
X023651Y036811D01*
X023651Y027491D01*
X014611Y027111D02*
X014471Y026771D01*
X014131Y026431D01*
X014131Y022641D01*
X011571Y020081D01*
X011571Y016511D01*
X011551Y014511D02*
X011551Y009511D01*
X012431Y008631D01*
X021011Y008631D01*
X022371Y009991D01*
X022611Y010111D01*
X022011Y010631D02*
X022371Y010991D01*
X022611Y011111D01*
X022011Y010631D02*
X014451Y010631D01*
X013391Y009571D01*
X011971Y009571D01*
X011551Y007811D02*
X010171Y007811D01*
X009791Y007431D01*
X009791Y004901D01*
X008771Y003881D01*
X008611Y003361D01*
X011771Y007591D02*
X011551Y007811D01*
X011771Y007591D02*
X018951Y007591D01*
X022431Y004251D02*
X023451Y005271D01*
X027011Y005491D02*
X028031Y004471D01*
X029131Y003951D02*
X027431Y005651D01*
X027011Y005491D02*
X027011Y005911D01*
X029131Y003951D02*
X029131Y003131D01*
X028831Y002831D01*
X019251Y002831D01*
X019081Y002681D01*
X015171Y002681D01*
X014641Y003211D01*
X014611Y003361D01*
X014611Y011111D02*
X014271Y011251D01*
X012931Y012591D01*
X011971Y012591D01*
X016611Y013111D02*
X016851Y013011D01*
X017751Y012111D01*
X025271Y038431D02*
X025271Y038531D01*
X025611Y038861D01*
D29*
X012111Y034111D03*
X005961Y020561D03*
X005511Y017711D03*
X008711Y015011D03*
X006111Y011511D03*
D30*
X020261Y020731D03*
X026151Y026771D03*
X032991Y024951D03*
X034691Y026651D03*
D31*
X010361Y007111D02*
X010361Y004855D01*
M02*
