G75*
G70*
%OFA0B0*%
%FSLAX24Y24*%
%IPPOS*%
%LPD*%
%AMOC8*
5,1,8,0,0,1.08239X$1,22.5*
%
%ADD10C,0.1580*%
%ADD11R,0.0780X0.0780*%
%ADD12OC8,0.0780*%
%ADD13R,0.0848X0.0848*%
%ADD14C,0.0848*%
%ADD15C,0.1180*%
%ADD16C,0.0580*%
%ADD17O,0.1200X0.0640*%
%ADD18O,0.0640X0.1200*%
%ADD19R,0.0595X0.0595*%
%ADD20C,0.0595*%
%ADD21OC8,0.0930*%
%ADD22R,0.0674X0.0674*%
%ADD23C,0.0674*%
%ADD24C,0.1280*%
%ADD25C,0.0555*%
%ADD26C,0.0480*%
%ADD27C,0.0611*%
%ADD28C,0.0420*%
D10*
X002361Y002111D03*
X018111Y035111D03*
X021111Y035111D03*
X021111Y038611D03*
X018111Y038611D03*
X002361Y038111D03*
X038111Y038111D03*
X038111Y002111D03*
D11*
X038111Y007611D03*
X037111Y012861D03*
X037111Y016861D03*
X038111Y016861D03*
X027111Y015111D03*
X026111Y015111D03*
X024611Y014111D03*
X024611Y022111D03*
X024611Y030111D03*
X028311Y034111D03*
X025611Y038861D03*
X014611Y030111D03*
X014611Y022111D03*
X014611Y014111D03*
D12*
X014611Y015111D03*
X014611Y016111D03*
X014611Y017111D03*
X014611Y018111D03*
X014611Y019111D03*
X014611Y020111D03*
X014611Y021111D03*
X014611Y023111D03*
X014611Y024111D03*
X014611Y025111D03*
X014611Y026111D03*
X014611Y027111D03*
X014611Y028111D03*
X014611Y029111D03*
X024611Y029111D03*
X024611Y028111D03*
X024611Y027111D03*
X024611Y026111D03*
X024611Y025111D03*
X024611Y024111D03*
X024611Y023111D03*
X024611Y021111D03*
X024611Y020111D03*
X024611Y019111D03*
X024611Y018111D03*
X024611Y017111D03*
X024611Y016111D03*
X024611Y015111D03*
X026111Y014111D03*
X027111Y014111D03*
X027111Y013111D03*
X027111Y012111D03*
X026111Y012111D03*
X026111Y013111D03*
X024611Y013111D03*
X024611Y012111D03*
X024611Y011111D03*
X024611Y010111D03*
X024611Y009111D03*
X024611Y008111D03*
X024611Y007111D03*
X014611Y007111D03*
X014611Y008111D03*
X014611Y009111D03*
X014611Y010111D03*
X014611Y011111D03*
X014611Y012111D03*
X014611Y013111D03*
X029311Y034111D03*
X030311Y034111D03*
X025611Y035861D03*
X025611Y036861D03*
X025611Y037861D03*
X037111Y015861D03*
X038111Y015861D03*
X038111Y014861D03*
X038111Y013861D03*
X038111Y012861D03*
X038111Y011861D03*
X038111Y010861D03*
X038111Y009861D03*
X037111Y009861D03*
X037111Y010861D03*
X037111Y011861D03*
X037111Y013861D03*
X037111Y014861D03*
X038111Y006611D03*
X038111Y005611D03*
X038111Y004611D03*
D13*
X018611Y003361D03*
X006611Y003361D03*
X003361Y022861D03*
X003361Y035361D03*
X006116Y038336D03*
D14*
X003361Y033361D03*
X003361Y031361D03*
X003361Y029361D03*
X003361Y027361D03*
X003361Y025361D03*
X006116Y022586D03*
X003361Y020861D03*
X003361Y018861D03*
X003361Y016861D03*
X003361Y014861D03*
X003361Y012861D03*
X003361Y010861D03*
X004361Y009361D03*
X003361Y008861D03*
X003361Y006861D03*
X004861Y005611D03*
X003361Y004861D03*
X008611Y003361D03*
X010611Y003361D03*
X012611Y003361D03*
X014611Y003361D03*
X016611Y003361D03*
X020611Y003361D03*
X022611Y003361D03*
X024611Y003361D03*
X026611Y003361D03*
X028611Y003361D03*
X013006Y022586D03*
X013006Y038336D03*
D15*
X012711Y036367D03*
X006411Y024555D03*
D16*
X012321Y026521D03*
X012321Y027521D03*
X012321Y028521D03*
D17*
X006761Y019111D03*
X006761Y018111D03*
X006761Y017111D03*
X006761Y014611D03*
X006761Y013611D03*
X006761Y012611D03*
X006761Y010111D03*
X006761Y009111D03*
X006761Y008111D03*
D18*
X009361Y007111D03*
X010361Y007111D03*
X011361Y007111D03*
X031861Y009361D03*
X032861Y009361D03*
X033861Y009361D03*
D19*
X016611Y030111D03*
D20*
X016611Y029111D03*
X016611Y028111D03*
X016611Y027111D03*
X016611Y026111D03*
X016611Y025111D03*
X016611Y024111D03*
X016611Y023111D03*
X016611Y022111D03*
X016611Y021111D03*
X016611Y020111D03*
X016611Y019111D03*
X016611Y018111D03*
X016611Y017111D03*
X016611Y016111D03*
X016611Y015111D03*
X016611Y014111D03*
X016611Y013111D03*
X016611Y012111D03*
X016611Y011111D03*
X016611Y010111D03*
X016611Y009111D03*
X016611Y008111D03*
X016611Y007111D03*
X022611Y007111D03*
X022611Y008111D03*
X022611Y009111D03*
X022611Y010111D03*
X022611Y011111D03*
X022611Y012111D03*
X022611Y013111D03*
X022611Y014111D03*
X022611Y015111D03*
X022611Y016111D03*
X022611Y017111D03*
X022611Y018111D03*
X022611Y019111D03*
X022611Y020111D03*
X022611Y021111D03*
X022611Y022111D03*
X022611Y023111D03*
X022611Y024111D03*
X022611Y025111D03*
X022611Y026111D03*
X022611Y027111D03*
X022611Y028111D03*
X022611Y029111D03*
X022611Y030111D03*
D21*
X036861Y018111D03*
X038111Y018111D03*
D22*
X039361Y028111D03*
D23*
X038361Y028111D03*
X037361Y028111D03*
X036361Y028111D03*
X035361Y028111D03*
X034361Y028111D03*
X033361Y028111D03*
X032361Y028111D03*
X031361Y028111D03*
X030361Y028111D03*
X029361Y028111D03*
X028361Y028111D03*
X027361Y028111D03*
X026361Y028111D03*
X029661Y030361D03*
X029661Y031361D03*
X029661Y032361D03*
X039361Y025111D03*
X039361Y024111D03*
X039361Y022111D03*
X038361Y022111D03*
X037361Y022111D03*
X036361Y022111D03*
X035361Y022111D03*
X034361Y022111D03*
X033361Y022111D03*
X032361Y022111D03*
X031361Y022111D03*
X030361Y022111D03*
X029361Y022111D03*
X028361Y022111D03*
X027361Y022111D03*
X026361Y022111D03*
X030861Y020111D03*
X030861Y019111D03*
X031861Y020111D03*
X032861Y020111D03*
X033861Y020111D03*
X033861Y019111D03*
X032861Y019111D03*
X034861Y019111D03*
X034861Y020111D03*
D24*
X038561Y019911D03*
X027161Y019911D03*
X032161Y031811D03*
D25*
X023611Y038611D03*
X028111Y016111D03*
X029111Y016111D03*
X030111Y016111D03*
X030111Y015111D03*
X030111Y014111D03*
X029111Y014111D03*
X029111Y015111D03*
X028111Y015111D03*
X028111Y014111D03*
X028111Y013111D03*
X029111Y013111D03*
X030111Y013111D03*
X030111Y012111D03*
X029111Y012111D03*
X028111Y012111D03*
X031111Y012111D03*
X031111Y013111D03*
X032111Y013111D03*
X032111Y012111D03*
X033111Y012111D03*
X033111Y013111D03*
X034111Y013111D03*
X034111Y012111D03*
X034111Y014111D03*
X034111Y015111D03*
X034111Y016111D03*
X033111Y016111D03*
X033111Y015111D03*
X033111Y014111D03*
X032111Y014111D03*
X032111Y015111D03*
X032111Y016111D03*
X031111Y016111D03*
X031111Y015111D03*
X031111Y014111D03*
D26*
X019631Y004691D03*
X017211Y006871D03*
X020291Y002451D03*
X008771Y030311D03*
X024771Y031111D03*
D27*
X012111Y034111D03*
X005961Y020561D03*
X005511Y017711D03*
X008711Y015011D03*
X006111Y011511D03*
D28*
X020261Y020731D03*
X026151Y026771D03*
X032991Y024951D03*
X034691Y026651D03*
M02*
